<svg width="256" height="48" xmlns="http://www.w3.org/2000/svg" xmlns:xlink="http://www.w3.org/1999/xlink">
  <defs/>
  <g>
    <path stroke="none" fill="#8E3F38" d="M158.6 47.45 L157.15 46 98.85 46 97.45 47.45 Q96.85 48 96 48 L48 48 Q47.15 48 46.6 47.45 46 46.85 46 46 L22.85 46 21.45 47.45 Q20.85 48 20 48 L5 48 Q0 48 0 43 L0 5 Q0 0 5 0 L44 0 Q44.85 0 45.45 0.6 L46.85 2 100 2 Q100 1.15 100.6 0.6 101.15 0 102 0 L154 0 Q154.85 0 155.45 0.6 156 1.15 156 2 L209.15 2 210.6 0.6 Q211.15 0 212 0 L251 0 Q256 0 256 5 L256 43 Q256 48 251 48 L236 48 Q235.15 48 234.6 47.45 L233.15 46 210 46 Q210 46.85 209.45 47.45 208.85 48 208 48 L160 48 Q159.15 48 158.6 47.45 M2 5 L2 43 Q2 46 5 46 L20 46 22 44 48 44 48 46 96 46 98 44 158 44 160 46 208 46 208 44 234 44 236 46 251 46 Q254 46 254 43 L254 5 Q254 2 251 2 L212 2 210 4 154 4 154 2 102 2 102 4 46 4 44 2 5 2 Q2 2 2 5"/>
    <path stroke="none" fill="#E2665B" d="M2 5 Q2 2 5 2 L44 2 46 4 102 4 102 2 154 2 154 4 210 4 212 2 251 2 Q254 2 254 5 L254 43 Q254 46 251 46 L236 46 234 44 208 44 208 46 160 46 158 44 98 44 96 46 48 46 48 44 22 44 20 46 5 46 Q2 46 2 43 L2 5 M6 42 L250 42 250 6 6 6 6 42"/>
    <path stroke="none" fill="#94AFC6" d="M243 34 Q242.6 34 242.3 34.3 242 34.6 242 35 242 35.4 242.3 35.7 L243 36 243.05 36 243.7 35.7 244 35.05 244 35 243.7 34.3 Q243.4 34 243 34 M243.05 12 L243 12 Q242.6 12 242.3 12.3 242 12.6 242 13 242 13.4 242.3 13.7 L243 14 243.7 13.7 244 13.05 244 13 243.7 12.3 Q243.4 12 243.05 12 M248 8 L248 40 8 40 8 8 248 8 M13 34 Q12.6 34 12.3 34.3 12 34.6 12 35 12 35.4 12.3 35.7 L13 36 Q13.4 36 13.7 35.7 L14 35 13.7 34.3 Q13.4 34 13 34 M13.05 12 L13 12 Q12.6 12 12.3 12.3 12 12.6 12 13 L12 13.05 12.3 13.7 13 14 Q13.4 14 13.7 13.7 L14 13 13.7 12.3 Q13.4 12 13.05 12"/>
    <path stroke="none" fill="#778D9F" d="M13.05 12 Q13.4 12 13.7 12.3 L14 13 13.7 13.7 Q13.4 14 13 14 L12.3 13.7 12 13.05 12 13 Q12 12.6 12.3 12.3 12.6 12 13 12 L13.05 12 M243.05 12 Q243.4 12 243.7 12.3 L244 13 244 13.05 243.7 13.7 243 14 242.3 13.7 Q242 13.4 242 13 242 12.6 242.3 12.3 242.6 12 243 12 L243.05 12 M243 34 Q243.4 34 243.7 34.3 L244 35 244 35.05 243.7 35.7 243.05 36 243 36 242.3 35.7 Q242 35.4 242 35 242 34.6 242.3 34.3 242.6 34 243 34 M13 34 Q13.4 34 13.7 34.3 L14 35 13.7 35.7 Q13.4 36 13 36 L12.3 35.7 Q12 35.4 12 35 12 34.6 12.3 34.3 12.6 34 13 34"/>
    <path stroke="none" fill="#FF7165" d="M248 8 L8 8 8 40 248 40 248 8 M6 42 L6 6 250 6 250 42 6 42"/>
  </g>
</svg>