<svg width="256" height="64" xmlns="http://www.w3.org/2000/svg" xmlns:xlink="http://www.w3.org/1999/xlink">
  <defs/>
  <g>
    <path stroke="none" fill="#C6594F" d="M240.75 7 L246.45 6.5 250.25 6.2 250.25 17.1 Q248.2 17.1 246.45 16.2 L246.45 10.85 241.8 11.3 Q241 9.6 240.8 7.6 L240.75 7.05 240.75 7 M250.25 42.2 L250.25 53.05 246.4 53.4 240.75 53.85 240.7 53.1 Q240.7 51.15 241.25 49.45 L246.15 49.05 246 49.1 246.45 49.05 246.45 43.05 Q248.2 42.2 250.25 42.2 M15.25 53.85 L9.75 53.4 9.65 53.4 5.7 53.05 5.7 42.2 Q7.8 42.2 9.55 43.05 L9.55 49.05 9.75 49.05 10 49.05 14.75 49.45 Q15.25 51.15 15.25 53.1 L15.25 53.85 M5.7 17.1 L5.7 6.2 9.55 6.5 9.75 6.55 15.25 7 Q15.15 9.35 14.15 11.3 L9.55 10.95 9.55 16.2 Q7.8 17.1 5.7 17.1 M244.55 14.95 L243.5 13.85 243.1 13.4 244.55 13.25 244.55 14.95 M12.9 13.4 L12.45 13.85 11.45 14.9 11.45 13.25 12.9 13.4 M11.45 44.35 L12.45 45.35 13.8 47.2 11.45 47 11.45 44.35 M242.2 47.2 Q242.7 46.2 243.5 45.35 L244.55 44.3 244.55 47 242.2 47.2"/>
    <path stroke="none" fill="#8E3F38" d="M12.15 55.8 L9.75 55.6 5.7 55.2 5.6 55.2 Q4.8 55.15 4.35 54.5 3.8 53.9 3.8 53.05 L3.8 6.2 Q3.8 5.6 4.1 5.05 L4.85 4.25 Q5.35 3.95 5.85 4 L9.55 4.35 9.75 4.4 15.2 4.8 55.4 7.55 68.75 8.2 93.6 9.05 97.4 9.15 106.95 9.3 122.25 9.45 126.1 9.45 128 9.45 147.1 9.35 177.65 8.6 208.25 7.1 219.7 6.4 240.8 4.8 246.45 4.35 250.1 4 251.1 4.25 251.9 5.05 252.15 6.2 252.15 53.05 251.7 54.5 Q251.15 55.15 250.4 55.2 L250.25 55.2 243.8 55.8 241.05 56.05 219.7 57.6 208.25 58.4 177.65 59.8 147.1 60.6 128 60.75 126.1 60.75 122.25 60.75 110.8 60.6 106.95 60.55 93.6 60.3 68.75 59.4 55.4 58.75 14.95 56.05 12.15 55.8 M250.25 17.1 L250.25 6.2 246.45 6.5 240.75 7 219.7 8.6 208.25 9.3 177.65 10.75 147.1 11.55 128 11.65 126.1 11.65 122.25 11.65 106.95 11.45 97.4 11.3 93.6 11.25 68.75 10.4 55.4 9.75 36.3 8.6 15.25 7 9.75 6.55 9.55 6.5 5.7 6.2 5.7 17.1 5.7 42.2 5.7 53.05 9.65 53.4 9.75 53.4 15.25 53.85 55.4 56.6 63.05 56.95 68.75 57.25 93.6 58.1 106.95 58.4 110.8 58.45 122.25 58.55 126.1 58.55 128 58.55 147.1 58.45 177.65 57.6 208.25 56.15 219.7 55.45 240.75 53.85 246.4 53.4 250.25 53.05 250.25 42.2 250.25 17.1"/>
    <path stroke="none" fill="#FFF1D2" d="M241.8 11.3 L246.45 10.85 246.45 16.2 246.45 43.05 246.45 49.05 246 49.1 246.15 49.05 241.25 49.45 240.5 49.5 219.7 51.05 208.25 51.8 177.65 53.25 147.1 54 128 54.2 126.1 54.2 122.25 54.2 110.85 54.05 106.95 54 93.6 53.75 68.75 52.85 63.25 52.6 55.4 52.2 15.55 49.5 14.75 49.45 10 49.05 9.75 49.05 9.55 49.05 9.55 43.05 9.55 16.2 9.55 10.95 14.15 11.3 15 11.35 36.1 12.95 55.4 14.1 68.75 14.75 93.6 15.6 97.35 15.65 106.95 15.85 122.25 16 126.1 16 128 16 147.1 15.9 177.65 15.15 208.25 13.65 219.7 12.95 241.05 11.35 241.8 11.3 M243.1 13.4 L241.2 13.55 219.7 15.15 208.25 15.85 177.65 17.3 147.1 18.05 128 18.2 126.1 18.2 122.25 18.2 106.95 18 97.35 17.85 93.6 17.8 68.75 16.95 55.4 16.25 35.95 15.15 14.85 13.55 12.9 13.4 11.45 13.25 11.45 14.9 11.45 44.35 11.45 47 13.8 47.2 15.7 47.3 55.4 50.05 63.25 50.4 68.75 50.7 93.6 51.55 106.95 51.85 110.9 51.9 122.25 52 126.1 52 128 52 147.1 51.85 177.65 51.05 208.25 49.6 219.7 48.9 240.35 47.3 242.2 47.2 244.55 47 244.55 44.3 244.55 14.95 244.55 13.25 243.1 13.4"/>
    <path stroke="none" fill="#E2665B" d="M243.1 13.4 L243.5 13.85 244.55 14.95 244.55 44.3 243.5 45.35 Q242.7 46.2 242.2 47.2 L240.35 47.3 219.7 48.9 208.25 49.6 177.65 51.05 147.1 51.85 128 52 126.1 52 122.25 52 110.9 51.9 106.95 51.85 93.6 51.55 68.75 50.7 63.25 50.4 55.4 50.05 15.7 47.3 13.8 47.2 12.45 45.35 11.45 44.35 11.45 14.9 12.45 13.85 12.9 13.4 14.85 13.55 35.95 15.15 55.4 16.25 68.75 16.95 93.6 17.8 97.35 17.85 106.95 18 122.25 18.2 126.1 18.2 128 18.2 147.1 18.05 177.65 17.3 208.25 15.85 219.7 15.15 241.2 13.55 243.1 13.4 M240.75 7.05 L240.8 7.6 Q241 9.6 241.8 11.3 L241.05 11.35 219.7 12.95 208.25 13.65 177.65 15.15 147.1 15.9 128 16 126.1 16 122.25 16 106.95 15.85 97.35 15.65 93.6 15.6 68.75 14.75 55.4 14.1 36.1 12.95 15 11.35 14.15 11.3 Q15.15 9.35 15.25 7 L36.3 9.35 55.4 11.05 68.75 12 93.6 13.25 97.4 13.4 106.95 13.65 122.25 13.85 126.1 13.85 128 13.85 147.1 13.7 177.65 12.55 208.25 10.45 219.7 9.35 240.75 7.05 M246.45 16.2 Q248.2 17.1 250.25 17.1 L250.25 42.2 Q248.2 42.2 246.45 43.05 L246.45 16.2 M240.75 53.85 L219.7 55.45 208.25 56.15 177.65 57.6 147.1 58.45 128 58.55 126.1 58.55 122.25 58.55 110.8 58.45 106.95 58.4 93.6 58.1 68.75 57.25 63.05 56.95 55.4 56.6 15.25 53.85 15.25 53.1 Q15.25 51.15 14.75 49.45 L15.55 49.5 55.4 52.2 63.25 52.6 68.75 52.85 93.6 53.75 106.95 54 110.85 54.05 122.25 54.2 126.1 54.2 128 54.2 147.1 54 177.65 53.25 208.25 51.8 219.7 51.05 240.5 49.5 241.25 49.45 Q240.7 51.15 240.7 53.1 L240.75 53.85 M5.7 42.2 L5.7 17.1 Q7.8 17.1 9.55 16.2 L9.55 43.05 Q7.8 42.2 5.7 42.2"/>
    <path stroke="none" fill="#FF7366" d="M240.75 7 L240.75 7.05 219.7 9.35 208.25 10.45 177.65 12.55 147.1 13.7 128 13.85 126.1 13.85 122.25 13.85 106.95 13.65 97.4 13.4 93.6 13.25 68.75 12 55.4 11.05 36.3 9.35 15.25 7 36.3 8.6 55.4 9.75 68.75 10.4 93.6 11.25 97.4 11.3 106.95 11.45 122.25 11.65 126.1 11.65 128 11.65 147.1 11.55 177.65 10.75 208.25 9.3 219.7 8.6 240.75 7"/>
    <path stroke="none" fill="#000000" fill-opacity="0.2" d="M243.8 55.8 L241.1 56.2 219.7 58.85 208.25 60.05 177.65 62.45 147.1 63.8 128 64 126.1 64 122.25 64 110.8 63.85 106.95 63.75 93.6 63.3 68.75 61.85 55.4 60.8 Q35.15 59 14.9 56.2 L12.15 55.8 14.95 56.05 55.4 58.75 68.75 59.4 93.6 60.3 106.95 60.55 110.8 60.6 122.25 60.75 126.1 60.75 128 60.75 147.1 60.6 177.65 59.8 208.25 58.4 219.7 57.6 241.05 56.05 243.8 55.8"/>
    <path stroke="none" fill="#515F6B" d="M4.75 2.05 L1.95 5 7.6 10.85 10.4 7.9 4.75 2.05 M6.15 0.6 L11.8 6.45 Q12.35 7.1 12.4 7.95 12.4 8.8 11.8 9.4 L8.95 12.35 Q8.4 12.95 7.6 13 6.75 12.95 6.2 12.3 L0.55 6.45 Q0 5.85 0 5.05 0 4.15 0.55 3.55 L3.4 0.6 Q4 0 4.8 0 5.6 0 6.15 0.6"/>
    <path stroke="none" fill="#778D9F" d="M4.75 2.05 L10.4 7.9 7.6 10.85 1.95 5 4.75 2.05"/>
    <path stroke="none" fill="#515F6B" d="M251.2 2.1 L245.65 7.95 248.4 10.85 254 5 251.2 2.1 M249.8 0.6 Q250.35 -0.05 251.2 0 252.05 0 252.6 0.65 L255.35 3.55 Q255.95 4.15 256 5.05 256 5.85 255.4 6.5 L249.85 12.35 Q249.25 12.95 248.4 13 247.55 12.9 246.95 12.3 L244.2 9.4 Q243.55 8.75 243.55 8 243.55 7.05 244.2 6.45 L249.8 0.6"/>
    <path stroke="none" fill="#778D9F" d="M251.2 2.1 L254 5 248.4 10.85 245.65 7.95 251.2 2.1"/>
  </g>
</svg>