<svg width="48" height="24" xmlns="http://www.w3.org/2000/svg" xmlns:xlink="http://www.w3.org/1999/xlink">
  <defs/>
  <g>
    <path stroke="none" fill="#515F6B" d="M5 0 L43 0 Q48 0 48 5 L48 19 Q48 24 43 24 L5 24 Q0 24 0 19 L0 5 Q0 0 5 0 M2 5 L2 19 2 19.35 Q2.15 22 5 22 L43 22 Q45.85 22 46 19.35 L46 19 46 5 Q46 2 43 2 L5 2 Q2 2 2 5"/>
    <path stroke="none" fill="#94AFC6" d="M2 5 Q2 2 5 2 L43 2 Q46 2 46 5 L46 19 46 19.35 Q45.85 22 43 22 L5 22 Q2.15 22 2 19.35 L2 19 2 5 M4 5 L4 19 Q4 19.95 4.95 20 L43.05 20 Q44 19.95 44 19 L44 5 Q44 4 43 4 L5 4 Q4 4 4 5"/>
    <path stroke="none" fill="#778D9F" d="M4 5 Q4 4 5 4 L43 4 Q44 4 44 5 L44 19 Q44 19.95 43.05 20 L4.95 20 Q4 19.95 4 19 L4 5"/>
  </g>
</svg>