<svg width="48" height="24" xmlns="http://www.w3.org/2000/svg" xmlns:xlink="http://www.w3.org/1999/xlink">
  <defs/>
  <g>
    <path stroke="none" fill="#6D4B27" d="M36 20 L38 22 43 22 Q45.85 22 46 19.35 L46 19 46 5 Q46 2 43 2 L14 2 12 4 10 2 5 2 Q2 2 2 5 L2 19 2 19.35 Q2.15 22 5 22 L34 22 36 20 M0 19.35 L0 19 0 5 Q0 0 5 0 L10 0 Q10.85 0 11.45 0.6 L12 1.15 12.6 0.6 Q13.15 0 14 0 L43 0 Q48 0 48 5 L48 19 48 19.35 48 19.5 Q47.8 24 43 24 L38 24 Q37.15 24 36.6 23.45 L36 22.85 35.45 23.45 Q34.85 24 34 24 L5 24 Q0.2 24 0 19.5 L0 19.35"/>
    <path stroke="none" fill="#B47B41" d="M36 20 L43.05 20 Q44 19.95 44 19 L44 5 Q44 4 43 4 L12 4 14 2 43 2 Q46 2 46 5 L46 19 46 19.35 Q45.85 22 43 22 L38 22 36 20 34 22 5 22 Q2.15 22 2 19.35 L2 19 2 5 Q2 2 5 2 L10 2 12 4 5 4 Q4 4 4 5 L4 19 Q4 19.95 4.95 20 L36 20"/>
    <path stroke="none" fill="#FFF1D2" d="M36 20 L4.95 20 Q4 19.95 4 19 L4 5 Q4 4 5 4 L12 4 43 4 Q44 4 44 5 L44 19 Q44 19.95 43.05 20 L36 20"/>
  </g>
</svg>