<svg width="24" height="24" xmlns="http://www.w3.org/2000/svg" xmlns:xlink="http://www.w3.org/1999/xlink">
  <defs/>
  <g>
    <path stroke="none" fill="#515F6B" d="M24 12 Q24 17 20.5 20.45 17 24 12 24 7 24 3.5 20.45 0 17 0 12 0 7 3.5 3.5 7 0 12 0 17 0 20.5 3.5 24 7 24 12 M4.95 4.95 Q2 7.85 2 12 2 16.15 4.9 19.05 L4.95 19.05 Q7.85 22 12 22 16.15 22 19.1 19.05 22 16.15 22 12 22 7.85 19.1 4.95 16.15 2 12 2 7.85 2 4.95 4.95"/>
    <path stroke="none" fill="#94AFC6" d="M4.95 4.95 Q7.85 2 12 2 16.15 2 19.1 4.95 22 7.85 22 12 22 16.15 19.1 19.05 16.15 22 12 22 7.85 22 4.95 19.05 L4.9 19.05 Q2 16.15 2 12 2 7.85 4.95 4.95 M6.35 6.35 Q4 8.65 4 12 4 15.3 6.3 17.6 L6.35 17.6 6.35 17.65 Q8.7 20 12 20 15.3 20 17.65 17.65 L17.7 17.6 Q20 15.3 20 12 20 8.65 17.7 6.35 L17.65 6.35 Q15.35 4 12 4 8.65 4 6.35 6.35"/>
    <path stroke="none" fill="#778D9F" d="M6.35 6.35 Q8.65 4 12 4 15.35 4 17.65 6.35 L17.7 6.35 Q20 8.65 20 12 20 15.3 17.7 17.6 L17.65 17.65 Q15.3 20 12 20 8.7 20 6.35 17.65 L6.35 17.6 6.3 17.6 Q4 15.3 4 12 4 8.65 6.35 6.35 M9.2 9.2 Q8 10.35 8 12 8 13.65 9.15 14.8 L9.2 14.8 9.2 14.85 Q10.35 16 12 16 13.65 16 14.85 14.85 L14.85 14.8 Q16 13.65 16 12 16 10.35 14.85 9.2 13.7 8 12 8 10.35 8 9.2 9.2"/>
    <path stroke="none" fill="#FFFFFF" d="M9.2 9.2 Q10.35 8 12 8 13.7 8 14.85 9.2 16 10.35 16 12 16 13.65 14.85 14.8 L14.85 14.85 Q13.65 16 12 16 10.35 16 9.2 14.85 L9.2 14.8 9.15 14.8 Q8 13.65 8 12 8 10.35 9.2 9.2"/>
  </g>
</svg>