<svg width="48" height="64" xmlns="http://www.w3.org/2000/svg" xmlns:xlink="http://www.w3.org/1999/xlink">
  <defs/>
  <g>
    <path stroke="none" fill="#8E3F38" d="M25.15 0.35 L47.15 15.4 47.8 16.15 48 17.05 48 47 47.8 47.95 47.15 48.65 25.15 63.65 24 64 Q23.4 64 22.9 63.65 L0.9 48.65 0.25 47.95 0 47 0 17.05 Q0 16.55 0.25 16.15 0.45 15.7 0.9 15.4 L22.9 0.35 Q23.4 0 24 0 24.6 0 25.15 0.35 M24 2 L2 17.05 2 47 24 62 46 47 46 17.05 24 2"/>
    <path stroke="none" fill="#CF5E53" d="M24 2 L46 17.05 46 47 24 62 2 47 2 17.05 24 2 M6 19.15 L6 44.9 24 57.2 42 44.9 42 19.15 24 6.85 6 19.15"/>
    <path stroke="none" fill="#A2C0D9" d="M6 19.15 L24 6.85 42 19.15 42 44.9 24 57.2 6 44.9 6 19.15 M8 20.2 L8 43.85 24 54.75 40 43.85 40 20.2 24 9.3 8 20.2"/>
    <path stroke="none" fill="#94AFC6" d="M8 20.2 L24 9.3 40 20.2 40 43.85 24 54.75 8 43.85 8 20.2"/>
    <path stroke="none" fill="#647685" d="M7 17 L7 12 Q7 7 12 7 L17 7 Q17.85 7 18.45 7.6 19 8.15 19 9 L19 13 Q19 13.85 18.45 14.45 L14.45 18.45 Q13.85 19 13 19 L9 19 Q8.15 19 7.6 18.45 7 17.85 7 17 M9 17 L13 17 17 13 17 9 12 9 Q9 9 9 12 L9 17"/>
    <path stroke="none" fill="#94AFC6" d="M9 17 L9 12 Q9 9 12 9 L17 9 17 13 13 17 9 17"/>
    <path stroke="none" fill="#647685" d="M39 17 L39 12 Q39 9 36 9 L31 9 31 13 35 17 39 17 M41 17 Q41 17.85 40.4 18.45 39.85 19 39 19 L35 19 Q34.15 19 33.55 18.45 L29.55 14.45 Q29 13.85 29 13 L29 9 Q29 8.15 29.55 7.6 30.15 7 31 7 L36 7 Q41 7 41 12 L41 17"/>
    <path stroke="none" fill="#94AFC6" d="M39 17 L35 17 31 13 31 9 36 9 Q39 9 39 12 L39 17"/>
    <path stroke="none" fill="#647685" d="M9 47 L9 52 Q9 55 12 55 L17 55 17 51 13 47 9 47 M7 47 Q7 46.15 7.6 45.55 8.15 45 9 45 L13 45 Q13.85 45 14.45 45.55 L18.45 49.55 Q19 50.15 19 51 L19 55 Q19 55.85 18.45 56.4 17.85 57 17 57 L12 57 Q7 57 7 52 L7 47"/>
    <path stroke="none" fill="#94AFC6" d="M9 47 L13 47 17 51 17 55 12 55 Q9 55 9 52 L9 47"/>
    <path stroke="none" fill="#647685" d="M39 47 L35 47 31 51 31 55 36 55 Q39 55 39 52 L39 47 M41 47 L41 52 Q41 57 36 57 L31 57 Q30.15 57 29.55 56.4 29 55.85 29 55 L29 51 Q29 50.15 29.55 49.55 L33.55 45.55 Q34.15 45 35 45 L39 45 Q39.85 45 40.4 45.55 41 46.15 41 47"/>
    <path stroke="none" fill="#94AFC6" d="M39 47 L39 52 Q39 55 36 55 L31 55 31 51 35 47 39 47"/>
    <path stroke="none" fill="#778D9F" d="M32.05 21 Q32.4 21 32.7 21.3 L33 22 33 22.05 32.7 22.7 32 23 Q31.6 23 31.3 22.7 31 22.4 31 22 31 21.6 31.3 21.3 31.6 21 32 21 L32.05 21 M32 41 Q32.4 41 32.7 41.3 L33 42 33 42.05 32.7 42.7 32.05 43 32 43 Q31.6 43 31.3 42.7 31 42.4 31 42 31 41.6 31.3 41.3 31.6 41 32 41 M16.05 21 Q16.4 21 16.7 21.3 L17 22 16.7 22.7 16 23 15.3 22.7 15 22.05 15 22 Q15 21.6 15.3 21.3 15.6 21 16 21 L16.05 21 M16 41 Q16.4 41 16.7 41.3 L17 42 16.7 42.7 16 43 15.3 42.7 Q15 42.4 15 42 15 41.6 15.3 41.3 15.6 41 16 41"/>
  </g>
</svg>