<svg width="48" height="64" xmlns="http://www.w3.org/2000/svg" xmlns:xlink="http://www.w3.org/1999/xlink">
  <defs/>
  <g>
    <path stroke="none" fill="#6D4B27" d="M0 47.05 L0 41.95 Q0 41.2 0.5 40.65 L1.65 39.3 0.5 38 Q0 37.45 0 36.7 L0 16.9 Q0 16.4 0.25 16 0.45 15.55 0.9 15.25 L22.95 0.35 Q23.45 0 24.05 0 24.65 0 25.2 0.35 L38.45 9.35 Q39.1 9.8 39.3 10.65 L39.6 12.3 41.05 11.95 41.85 11.95 42.6 12.25 47.1 15.25 47.8 15.95 48 16.9 48 47.05 47.8 48 47.15 48.7 34.4 57.4 33.5 57.75 32.6 57.65 31.9 57.4 31.5 58.8 Q31.3 59.55 30.7 59.95 L25.2 63.65 24.05 64 Q23.45 64 22.95 63.65 L0.9 48.7 0.25 48 0 47.05 M2 47.05 L24.05 62 29.55 58.3 30.45 54.75 33.25 55.75 46 47.05 46 16.9 41.5 13.9 38 14.75 37.3 11 24.05 2 2 16.9 2 36.7 4.25 39.3 2 41.95 2 47.05"/>
    <path stroke="none" fill="#B47B41" d="M2 47.05 L2 41.95 4.25 39.3 2 36.7 2 16.9 24.05 2 37.3 11 38 14.75 41.5 13.9 46 16.9 46 47.05 33.25 55.75 30.45 54.75 29.55 58.3 24.05 62 2 47.05 M6 19.15 L6 44.9 24 57.2 42 44.9 42 19.15 24 6.85 6 19.15"/>
    <path stroke="none" fill="#A3703A" d="M6 19.15 L24 6.85 42 19.15 42 44.9 24 57.2 6 44.9 6 19.15 M8 20.2 L8 43.85 24 54.75 33.1 48.6 33.75 44.9 37.45 45.6 40 43.85 40 20.2 24 9.3 15.5 15.1 14.9 18.25 11.75 17.65 8 20.2"/>
    <path stroke="none" fill="#FFF1D2" d="M8 20.2 L11.75 17.65 14.9 18.25 15.5 15.1 24 9.3 40 20.2 40 43.85 37.45 45.6 33.75 44.9 33.1 48.6 24 54.75 8 43.85 8 20.2"/>
  </g>
</svg>