<svg width="48" height="64" xmlns="http://www.w3.org/2000/svg" xmlns:xlink="http://www.w3.org/1999/xlink">
  <defs/>
  <g>
    <path stroke="none" fill="#515F6B" d="M24 2 L2 17.05 2 47 24 62 46 47 46 17.05 24 2 M25.15 0.35 L47.15 15.4 47.8 16.15 48 17.05 48 47 47.8 47.95 47.15 48.65 25.15 63.65 24 64 Q23.4 64 22.9 63.65 L0.9 48.65 0.25 47.95 0 47 0 17.05 Q0 16.55 0.25 16.15 0.45 15.7 0.9 15.4 L22.9 0.35 Q23.4 0 24 0 24.6 0 25.15 0.35"/>
    <path stroke="none" fill="#778D9F" d="M6 19.15 L6 44.9 24 57.2 42 44.9 42 19.15 24 6.85 6 19.15 M24 2 L46 17.05 46 47 24 62 2 47 2 17.05 24 2"/>
    <path stroke="none" fill="#647685" d="M6 19.15 L24 6.85 42 19.15 42 44.9 24 57.2 6 44.9 6 19.15"/>
  </g>
</svg>