<svg width="128" height="128" xmlns="http://www.w3.org/2000/svg" xmlns:xlink="http://www.w3.org/1999/xlink">
  <defs/>
  <g>
    <path stroke="none" fill="#6D4B27" d="M13.95 16.05 Q13.95 15.15 14.5 14.5 15.1 14 15.95 13.95 L24.05 13.95 Q41.15 0 64 0 86.95 0 104 14 L111.95 13.95 Q112.8 14 113.5 14.5 114 15.1 114.05 15.95 L114.05 24 Q128 41.1 128 64 128 86.95 114.05 104 L114.05 112 Q114 112.9 113.5 113.5 112.85 114 111.95 114.05 L104 114.05 Q86.95 128 64 128 41.1 128 24 114.05 L15.95 114.05 Q15.1 114 14.5 113.5 13.95 112.85 13.95 111.95 L14 104 Q0 86.95 0 64 0 41.15 13.95 24.05 L13.95 16.05 M20.2 20.2 L20 20.4 Q16.65 23.75 13.95 27.35 2 43.2 2 64 2 84.9 14 100.8 16.7 104.4 20 107.7 L20.15 107.85 20.2 107.85 20.35 108 Q23.65 111.3 27.25 114 43.15 126 64 126 84.9 126 100.8 114 104.4 111.3 107.75 107.95 L107.85 107.85 108 107.7 Q111.3 104.4 114 100.8 126 84.9 126 64 126 43.15 114 27.25 111.3 23.65 108 20.35 L107.85 20.2 107.85 20.15 107.7 20 Q104.4 16.7 100.8 14 84.9 2 64 2 43.2 2 27.35 13.95 23.75 16.65 20.45 19.95 L20.2 20.2"/>
    <path stroke="none" fill="#B47B41" d="M20.2 20.2 L20.45 19.95 Q23.75 16.65 27.35 13.95 43.2 2 64 2 84.9 2 100.8 14 104.4 16.7 107.7 20 L107.85 20.15 107.85 20.2 108 20.35 Q111.3 23.65 114 27.25 126 43.15 126 64 126 84.9 114 100.8 111.3 104.4 108 107.7 L107.85 107.85 107.75 107.95 Q104.4 111.3 100.8 114 84.9 126 64 126 43.15 126 27.25 114 23.65 111.3 20.35 108 L20.2 107.85 20.15 107.85 20 107.7 Q16.7 104.4 14 100.8 2 84.9 2 64 2 43.2 13.95 27.35 16.65 23.75 20 20.4 L20.2 20.2 M23 23 L21.45 24.65 Q18.95 27.25 16.9 30.05 6 44.8 6 64 6 83.25 16.9 97.95 L21.4 103.4 22.7 104.75 23 105 24.6 106.55 29.95 111.05 Q44.7 122 64 122 83.25 122 97.95 111.15 L103.4 106.6 105 105.05 105.05 105 106.55 103.45 111.1 98 Q122 83.3 122 64 122 44.75 111.05 30 109 27.2 106.55 24.6 L105 23 104.75 22.7 103.4 21.4 97.95 16.85 Q83.2 6 64 6 44.7 6 29.95 17 27.2 19.05 24.6 21.5 L23 23"/>
    <path stroke="none" fill="#A3703A" d="M23 23 L24.6 21.5 Q27.2 19.05 29.95 17 44.7 6 64 6 83.2 6 97.95 16.85 L103.4 21.4 104.75 22.7 105 23 106.55 24.6 Q109 27.2 111.05 30 122 44.75 122 64 122 83.3 111.1 98 L106.55 103.45 105.05 105 105 105.05 103.4 106.6 97.95 111.15 Q83.25 122 64 122 44.7 122 29.95 111.05 L24.6 106.55 23 105 22.7 104.75 21.4 103.4 16.9 97.95 Q6 83.25 6 64 6 44.8 16.9 30.05 18.95 27.25 21.45 24.65 L23 23 M24.45 24.45 Q8 40.8 8 64 8 87.05 24.15 103.35 L24.45 103.6 Q40.8 120 64 120 87.2 120 103.6 103.65 L103.6 103.6 103.65 103.6 Q120 87.2 120 64 120 40.8 103.6 24.45 L103.35 24.15 Q87.05 8 64 8 40.8 8 24.45 24.45"/>
    <path stroke="none" fill="#515F6B" d="M66.75 13.4 Q66.2 12.85 66.2 12 L66.2 9.95 64 7.75 61.75 10 61.75 12 Q61.75 12.85 61.2 13.4 L61.1 13.55 Q60.55 14.05 59.7 14 L56.9 14 Q56.05 14.05 55.45 13.45 L54.05 12.05 Q53.45 11.4 53.5 10.5 53.5 9.75 54.1 9.15 L62.55 0.7 Q63.15 0.1 64 0 64.8 0.05 65.4 0.65 L73.9 9.15 Q74.5 9.75 74.5 10.5 74.45 11.4 73.85 12.05 L72.45 13.45 Q71.85 14.05 71.05 14 L68.2 14 Q67.45 14.05 66.9 13.55 L66.75 13.4 M68.2 9.15 L68.2 12 71.05 12.05 72.45 10.6 69.6 7.75 63.95 2.1 58.3 7.75 55.5 10.55 56.9 12 59.75 12.05 59.7 9.15 62.55 6.3 65.4 6.35 68.2 9.15"/>
    <path stroke="none" fill="#778D9F" d="M68.2 9.15 L69.6 7.75 72.45 10.6 71.05 12.05 68.2 12 68.2 9.15 M59.7 9.15 L59.75 12.05 56.9 12 55.5 10.55 58.3 7.75 59.7 9.15"/>
    <path stroke="none" fill="#94AFC6" d="M59.7 9.15 L58.3 7.75 63.95 2.1 69.6 7.75 68.2 9.15 65.4 6.35 62.55 6.3 59.7 9.15"/>
    <path stroke="none" fill="#778D9F" d="M68.2 118.8 L68.2 116 71.05 115.95 72.45 117.35 69.6 120.2 68.2 118.8 M58.3 120.2 L55.5 117.4 56.9 116 59.75 115.95 59.7 118.8 58.3 120.2"/>
    <path stroke="none" fill="#515F6B" d="M69.6 120.2 L72.45 117.35 71.05 115.95 68.2 116 68.2 118.8 65.4 121.65 62.55 121.7 59.7 118.8 59.75 115.95 56.9 116 55.5 117.4 58.3 120.2 63.95 125.9 69.6 120.2 M66.75 114.6 L66.9 114.45 Q67.45 113.95 68.2 114 L71.05 114 Q71.85 113.95 72.45 114.55 L73.85 115.95 Q74.45 116.55 74.5 117.45 74.5 118.2 73.9 118.8 L65.4 127.35 Q64.8 127.95 64 128 63.15 127.9 62.55 127.3 L54.1 118.8 Q53.5 118.2 53.5 117.45 53.45 116.55 54.05 115.95 L55.45 114.55 Q56.05 113.95 56.9 114 L59.7 114 Q60.55 113.95 61.1 114.45 L61.2 114.6 Q61.75 115.15 61.75 116 L61.75 117.95 64 120.2 66.2 118 66.2 116 Q66.2 115.15 66.75 114.6"/>
    <path stroke="none" fill="#94AFC6" d="M68.2 118.8 L69.6 120.2 63.95 125.9 58.3 120.2 59.7 118.8 62.55 121.7 65.4 121.65 68.2 118.8"/>
    <path stroke="none" fill="#515F6B" d="M9.15 59.8 L12 59.8 12.05 56.95 10.6 55.55 7.75 58.4 2.1 64.05 7.75 69.7 10.55 72.5 12 71.1 12.05 68.25 9.15 68.3 6.3 65.45 6.35 62.6 9.15 59.8 M13.4 61.25 Q12.85 61.8 12 61.8 L9.95 61.8 7.75 64 10 66.25 12 66.25 Q12.85 66.25 13.4 66.8 L13.55 66.9 Q14.05 67.45 14 68.3 L14 71.1 Q14.05 71.95 13.45 72.55 L12.05 73.95 Q11.4 74.55 10.5 74.5 9.75 74.5 9.15 73.9 L0.7 65.45 Q0.1 64.85 0 64 0.05 63.2 0.65 62.6 L9.15 54.1 Q9.75 53.5 10.5 53.5 11.4 53.55 12.05 54.15 L13.45 55.55 Q14.05 56.15 14 56.95 L14 59.8 Q14.05 60.55 13.55 61.1 L13.4 61.25"/>
    <path stroke="none" fill="#778D9F" d="M7.75 58.4 L10.6 55.55 12.05 56.95 12 59.8 9.15 59.8 7.75 58.4 M9.15 68.3 L12.05 68.25 12 71.1 10.55 72.5 7.75 69.7 9.15 68.3"/>
    <path stroke="none" fill="#94AFC6" d="M9.15 68.3 L7.75 69.7 2.1 64.05 7.75 58.4 9.15 59.8 6.35 62.6 6.3 65.45 9.15 68.3"/>
    <path stroke="none" fill="#515F6B" d="M114.6 61.25 L114.45 61.1 Q113.95 60.55 114 59.8 L114 56.95 Q113.95 56.15 114.55 55.55 L115.95 54.15 Q116.55 53.55 117.45 53.5 118.2 53.5 118.8 54.1 L127.35 62.6 Q127.95 63.2 128 64 127.9 64.85 127.3 65.45 L118.8 73.9 Q118.2 74.5 117.45 74.5 116.55 74.55 115.95 73.95 L114.55 72.55 Q113.95 71.95 114 71.1 L114 68.3 Q113.95 67.45 114.45 66.9 L114.6 66.8 Q115.15 66.25 116 66.25 L117.95 66.25 120.2 64 118 61.8 116 61.8 Q115.15 61.8 114.6 61.25 M120.2 58.4 L117.35 55.55 115.95 56.95 116 59.8 118.8 59.8 121.65 62.6 121.7 65.45 118.8 68.3 115.95 68.25 116 71.1 117.4 72.5 120.2 69.7 125.9 64.05 120.2 58.4"/>
    <path stroke="none" fill="#778D9F" d="M120.2 58.4 L118.8 59.8 116 59.8 115.95 56.95 117.35 55.55 120.2 58.4 M120.2 69.7 L117.4 72.5 116 71.1 115.95 68.25 118.8 68.3 120.2 69.7"/>
    <path stroke="none" fill="#94AFC6" d="M120.2 69.7 L118.8 68.3 121.7 65.45 121.65 62.6 118.8 59.8 120.2 58.4 125.9 64.05 120.2 69.7"/>
  </g>
</svg>