<svg width="8" height="16" xmlns="http://www.w3.org/2000/svg" xmlns:xlink="http://www.w3.org/1999/xlink">
  <defs/>
  <g>
    <path stroke="none" fill="#8E3F38" d="M8 2 L8 8 Q8 8.85 7.45 9.45 L7.2 9.6 Q8 10.65 8 12 8 13.6 6.85 14.85 5.6 16 4 16 2.4 16 1.2 14.85 0 13.6 0 12 0 10.65 0.8 9.6 L0.6 9.45 Q0 8.85 0 8 L0 2 Q0 1.15 0.6 0.6 1.15 0 2 0 L6 0 Q6.85 0 7.45 0.6 8 1.15 8 2 M6 12 Q6 11.2 5.4 10.6 4.8 10 4 10 3.2 10 2.6 10.6 2 11.2 2 12 2 12.8 2.6 13.4 3.2 14 4 14 4.8 14 5.4 13.4 6 12.8 6 12 M2 2 L2 8 6 8 6 2 2 2"/>
    <path stroke="none" fill="#E2665B" d="M2 2 L6 2 6 8 2 8 2 2 M6 12 Q6 12.8 5.4 13.4 4.8 14 4 14 3.2 14 2.6 13.4 2 12.8 2 12 2 11.2 2.6 10.6 3.2 10 4 10 4.8 10 5.4 10.6 6 11.2 6 12"/>
  </g>
</svg>