<svg width="20" height="22" xmlns="http://www.w3.org/2000/svg" xmlns:xlink="http://www.w3.org/1999/xlink">
  <defs/>
  <g>
    <path stroke="none" fill="#FFFFFF" d="M2 16.25 L2 3.95 Q2 3.15 2.55 2.6 3.1 2 3.95 2 4.8 2 5.4 2.6 5.95 3.15 5.95 3.95 L5.95 12.7 8.55 9.7 Q8.95 9.25 9.5 9.1 10 8.9 10.55 9.1 11.1 9.25 11.5 9.7 L14.05 12.65 14.05 3.95 Q14.05 3.15 14.65 2.6 15.2 2 16.05 2 16.9 2 17.5 2.6 18 3.15 18 3.95 L18 16.25 17.7 17.15 16.75 17.9 15.55 17.95 Q14.95 17.8 14.55 17.35 L10 12.05 5.45 17.35 Q5.05 17.8 4.45 17.95 L3.25 17.9 2.3 17.15 Q2 16.75 2 16.25"/>
    <path stroke="none" fill="#556979" d="M2 16.25 L2 18 Q2 18.65 2.3 19.15 L3.25 19.9 4.45 19.95 Q5.05 19.8 5.45 19.35 L10 14.05 14.55 19.35 Q14.95 19.8 15.55 19.95 L16.75 19.9 17.7 19.15 18 18 18 16.25 18 3.95 Q18 3.15 17.5 2.6 16.9 2 16.05 2 15.2 2 14.65 2.6 14.05 3.15 14.05 3.95 L14.05 12.65 11.5 9.7 Q11.1 9.25 10.55 9.1 10 8.9 9.5 9.1 8.95 9.25 8.55 9.7 L5.95 12.7 5.95 3.95 Q5.95 3.15 5.4 2.6 4.8 2 3.95 2 3.1 2 2.55 2.6 2 3.15 2 3.95 L2 16.25 M4 0 Q5.6 0 6.75 1.15 L6.75 1.2 Q7.9 2.35 7.9 4 L7.9 7.65 8.95 7.15 Q10 6.8 11.15 7.15 L11.1 7.15 12.1 7.6 12.1 4 Q12.1 3.1 12.45 2.35 L13.25 1.2 13.3 1.15 Q14.35 0.05 15.95 0 L16.1 0 Q17.7 0 18.85 1.15 L18.85 1.2 Q20 2.35 20 4 L20 18 Q20 19.25 19.3 20.3 L17.45 21.75 15.1 21.9 15.05 21.9 Q13.9 21.55 13.1 20.65 L10 17.1 6.95 20.65 6.9 20.65 Q6.1 21.55 4.95 21.9 L2.55 21.75 2.6 21.75 Q1.45 21.3 0.75 20.3 L0.7 20.3 Q0 19.25 0 18 L0 4 Q0 2.35 1.15 1.2 L1.2 1.15 Q2.25 0.05 3.85 0 L4 0"/>
    <path stroke="none" fill="#C7E0F7" d="M2 16.25 Q2 16.75 2.3 17.15 L3.25 17.9 4.45 17.95 Q5.05 17.8 5.45 17.35 L10 12.05 14.55 17.35 Q14.95 17.8 15.55 17.95 L16.75 17.9 17.7 17.15 18 16.25 18 18 17.7 19.15 16.75 19.9 15.55 19.95 Q14.95 19.8 14.55 19.35 L10 14.05 5.45 19.35 Q5.05 19.8 4.45 19.95 L3.25 19.9 2.3 19.15 Q2 18.65 2 18 L2 16.25"/>
  </g>
</svg>