<svg width="20" height="20" xmlns="http://www.w3.org/2000/svg" xmlns:xlink="http://www.w3.org/1999/xlink">
  <defs/>
  <g>
    <path stroke="none" fill="#556979" d="M17.25 15.55 L18 2.2 12.5 2.35 12.3 10 8.25 1.9 2.4 2.2 2.05 16.2 2 18.1 7.25 18.1 7.45 15.35 7.75 9.8 11.05 17.95 17.15 17.4 17.25 15.55 M12.45 0.45 L18 0.3 19 0.5 19.75 1.3 Q20.05 1.75 20 2.3 L19.15 17.5 Q19.1 18.25 18.6 18.75 18.05 19.3 17.35 19.3 L11.25 19.85 10 19.55 Q9.4 19.25 9.2 18.65 L8.65 19.45 Q8.05 20 7.25 20 L2 20 1 19.75 0.25 19.05 0 18.05 0.4 2.15 Q0.4 1.35 1 0.85 1.5 0.3 2.3 0.3 L8.15 0 8.25 0 9.3 0.3 10.05 1.1 10.55 2.05 Q10.65 1.45 11.1 1.05 11.65 0.5 12.45 0.45"/>
    <path stroke="none" fill="#FFFFFF" d="M2.05 16.2 L2.4 2.2 8.25 1.9 12.3 10 12.5 2.35 18 2.2 17.25 15.55 11.05 16.05 7.75 7.95 7.75 9.8 7.45 15.35 7.35 16.2 2.05 16.2"/>
    <path stroke="none" fill="#C7E0F7" d="M2.05 16.2 L7.35 16.2 7.45 15.35 7.25 18.1 2 18.1 2.05 16.2 M17.25 15.55 L17.15 17.4 11.05 17.95 7.75 9.8 7.75 7.95 11.05 16.05 17.25 15.55"/>
  </g>
</svg>