<svg width="26" height="20" xmlns="http://www.w3.org/2000/svg" xmlns:xlink="http://www.w3.org/1999/xlink">
  <defs/>
  <g>
    <path stroke="none" fill="#556979" d="M26 2.75 L23.2 18.35 Q23.05 19 22.5 19.45 L21.25 19.9 14.5 20 13.2 19.55 12.75 19.1 11.7 19.4 4.9 19.65 Q4.15 19.7 3.55 19.25 2.95 18.8 2.85 18.1 L0.05 2.75 Q-0.05 2.25 0.15 1.75 0.35 1.25 0.8 0.9 1.25 0.55 1.85 0.5 L7.7 0 Q8.5 -0.05 9.15 0.4 L9.3 0.5 9.35 0.45 Q9.9 0 10.7 0 L15.35 0 Q16.05 0 16.65 0.45 L16.7 0.5 16.85 0.4 Q17.45 -0.1 18.3 0 L24.2 0.5 Q24.75 0.55 25.2 0.9 L25.85 1.7 26 2.75 M4.45 15.6 L4.8 17.75 11.6 17.5 13 10.05 14.45 18.1 21.2 18 21.55 16.2 24 2.4 18.1 1.9 17.15 11.35 15.35 1.9 10.7 1.9 9.1 11.25 7.9 1.9 2.05 2.4 4.15 14 4.2 14.35 4.4 15.6 4.45 15.6"/>
    <path stroke="none" fill="#C7E0F7" d="M4.45 15.6 L11.1 15.6 13 8.15 15.15 16.2 21.55 16.2 21.2 18 14.45 18.1 13 10.05 11.6 17.5 4.8 17.75 4.45 15.6"/>
    <path stroke="none" fill="#FFFFFF" d="M4.45 15.6 L4.4 15.6 4.2 14.35 4.15 14 2.05 2.4 7.9 1.9 9.1 11.25 10.7 1.9 15.35 1.9 17.15 11.35 18.1 1.9 24 2.4 21.55 16.2 15.15 16.2 13 8.15 11.1 15.6 4.45 15.6"/>
  </g>
</svg>