<svg width="128" height="128" xmlns="http://www.w3.org/2000/svg" xmlns:xlink="http://www.w3.org/1999/xlink">
  <defs/>
  <g>
    <path stroke="none" fill="#CCCCCC" d="M24.45 24.45 Q8 40.8 8 64 8 87.05 24.15 103.35 L24.45 103.6 Q40.8 120 64 120 87.2 120 103.6 103.65 L103.6 103.6 103.65 103.6 Q120 87.2 120 64 120 40.8 103.6 24.45 L103.35 24.15 Q87.05 8 64 8 40.8 8 24.45 24.45 M23 23 Q40 6 64 6 87.85 6 104.75 22.7 L105 23 Q122 40 122 64 122 88.05 105.05 105 L105 105.05 Q88.05 122 64 122 40 122 23 105 L22.7 104.75 Q6 87.85 6 64 6 40 23 23"/>
    <path stroke="none" fill="#E5E5E5" d="M23 23 Q6 40 6 64 6 87.85 22.7 104.75 L23 105 Q40 122 64 122 88.05 122 105 105.05 L105.05 105 Q122 88.05 122 64 122 40 105 23 L104.75 22.7 Q87.85 6 64 6 40 6 23 23 M20.2 20.2 Q38.35 2 64 2 89.7 2 107.85 20.15 L107.85 20.2 Q126 38.35 126 64 126 89.7 107.85 107.85 89.7 126 64 126 38.35 126 20.2 107.85 L20.15 107.85 Q2 89.7 2 64 2 38.35 20.2 20.2"/>
    <path stroke="none" fill="#999999" d="M20.2 20.2 Q2 38.35 2 64 2 89.7 20.15 107.85 L20.2 107.85 Q38.35 126 64 126 89.7 126 107.85 107.85 126 89.7 126 64 126 38.35 107.85 20.2 L107.85 20.15 Q89.7 2 64 2 38.35 2 20.2 20.2 M128 64 Q128 90.55 109.25 109.25 90.55 128 64 128 37.5 128 18.75 109.25 0 90.55 0 64 0 37.5 18.75 18.75 37.5 0 64 0 90.55 0 109.25 18.75 128 37.5 128 64"/>
  </g>
</svg>