<svg width="16" height="20" xmlns="http://www.w3.org/2000/svg" xmlns:xlink="http://www.w3.org/1999/xlink">
  <defs/>
  <g>
    <path stroke="none" fill="#556979" d="M15.95 2 L15.8 4.1 15.8 4.25 15.65 6.3 15 7.45 13.95 8 13.75 11.15 14.1 11.3 14.85 12.05 15.1 13.05 14.95 15.5 14.8 18 Q14.75 18.7 14.15 19.25 13.5 19.75 12.75 19.75 L2.1 20 1.1 19.75 0.3 19.05 Q-0.05 18.55 -0.05 18.05 L0.4 1.85 Q0.4 1.1 1.05 0.55 1.6 0 2.45 0 L13.85 0 14.95 0.3 15.7 1 15.95 2 M13.65 4.2 L13.65 4.05 13.85 1.9 2.45 1.9 2.1 16.2 2.05 18.1 12.7 17.85 12.85 16.2 12.85 15.4 13 14.6 13.05 12.95 7.8 12.95 7.9 11.3 11.6 11.25 11.75 9.4 11.85 7.75 8.25 7.75 8.35 6.3 13.5 6.1 13.65 4.2"/>
    <path stroke="none" fill="#FFFFFF" d="M13.65 4.2 L8.35 4.4 8.35 6.3 8.25 7.75 11.85 7.75 11.75 9.4 7.9 9.4 7.9 11.3 7.8 12.95 13.05 12.95 13 14.6 12.85 15.4 12.85 16.2 2.1 16.2 2.45 1.9 13.85 1.9 13.65 4.05 13.65 4.2"/>
    <path stroke="none" fill="#C7E0F7" d="M13.65 4.2 L13.5 6.1 8.35 6.3 8.35 4.4 13.65 4.2 M11.75 9.4 L11.6 11.25 7.9 11.3 7.9 9.4 11.75 9.4 M12.85 16.2 L12.7 17.85 2.05 18.1 2.1 16.2 12.85 16.2"/>
  </g>
</svg>