<svg width="16" height="20" xmlns="http://www.w3.org/2000/svg" xmlns:xlink="http://www.w3.org/1999/xlink">
  <defs/>
  <g>
    <path stroke="none" fill="#556979" d="M12.85 5.25 L12.85 5.1 13.1 2.7 12.95 2.6 12 2.3 10.85 2 9.7 1.9 8.5 1.85 7 2 6.05 2.25 Q4.9 2.6 3.95 3.35 3.05 4.05 2.55 5.1 L2.05 6.4 1.95 7.35 Q1.95 8.3 2.3 9.15 L3.15 10.5 3.75 11 4.6 11.4 6.35 11.75 6.75 11.75 7.25 11.75 7.8 11.85 8.25 11.95 8.55 12.15 8.6 12.2 8.75 12.55 8.55 13.05 8.1 13.3 7.5 13.35 7 13.4 4.65 13.15 Q3.45 12.85 2.5 12.25 L2.2 15 1.95 16.8 3.1 17.25 4.4 17.7 5.75 18 7 18.15 9.75 17.8 Q11 17.4 11.95 16.7 L13.45 14.85 Q14 13.7 14 12.2 L13.95 11.35 13.75 10.6 13 9.35 11.7 8.5 10.05 8.15 9.6 8.15 8.95 8.15 8.25 8.1 7.7 8 7.2 7.8 7 7.35 7.15 7.05 7.5 6.8 7.95 6.6 8.45 6.5 8.95 6.5 9.35 6.5 11 6.7 12.35 7 12.65 7.1 12.85 5.25 M7.9 0.05 L9.1 0 9.85 0.05 10.15 0.05 11.2 0.2 11.35 0.2 12.55 0.5 12.5 0.45 13.95 1 14.8 1.8 Q15.1 2.3 15.05 2.85 L14.95 3.95 14.9 3.95 14.4 8.05 14.45 8.1 Q15.2 8.85 15.65 9.95 L15.65 10.05 16 12.2 Q16 14.1 15.3 15.6 L15.25 15.7 Q14.5 17.15 13.2 18.1 L13.25 18.1 12.45 18.7 10.35 19.55 7 20 5.4 19.85 5.35 19.85 3.9 19.5 3.75 19.45 2.5 19 1.05 18.4 Q0.5 18.15 0.2 17.65 -0.05 17.15 0.05 16.55 L0.55 12.05 0.6 11.7 Q0.7 11.3 1.05 11 L0.75 10.45 0.45 9.8 0.45 9.85 Q0 8.7 0 7.35 0 5.65 0.8 4.2 L0.75 4.25 Q1.35 3.2 2.25 2.35 L2.75 1.95 2.7 1.95 Q3.9 1 5.45 0.45 L7.9 0.05"/>
    <path stroke="none" fill="#FFFFFF" d="M2.05 6.4 L2.55 5.1 Q3.05 4.05 3.95 3.35 4.9 2.6 6.05 2.25 L7 2 8.5 1.85 9.7 1.9 10.85 2 12 2.3 12.95 2.6 13.1 2.7 12.85 5.1 12.85 5.25 11 4.85 9.35 4.7 8.95 4.7 8.45 4.7 7.95 4.8 7.5 4.9 7.15 5.2 7 5.5 7 6.05 7 7.35 7.2 7.8 7.7 8 8.25 8.1 8.95 8.15 9.6 8.15 10.05 8.15 11.7 8.5 13 9.35 13.75 10.6 13.95 11.35 13.45 13 11.95 14.85 Q11 15.55 9.75 15.9 L7 16.3 5.75 16.15 4.4 15.85 3.1 15.35 2.2 15 2.5 12.25 Q3.45 12.85 4.65 13.15 L7 13.4 7.5 13.35 8.1 13.3 8.55 13.05 8.75 12.55 8.75 10.75 8.6 10.35 8.25 10.1 7.8 9.95 7.25 9.85 6.75 9.85 6.35 9.85 4.6 9.55 3.15 8.7 2.3 7.3 2.05 6.4"/>
    <path stroke="none" fill="#C7E0F7" d="M2.05 6.4 L2.3 7.3 3.15 8.7 4.6 9.55 6.35 9.85 6.75 9.85 7.25 9.85 7.8 9.95 8.25 10.1 8.6 10.35 8.75 10.75 8.75 12.55 8.6 12.2 8.55 12.15 8.25 11.95 7.8 11.85 7.25 11.75 6.75 11.75 6.35 11.75 4.6 11.4 3.75 11 3.15 10.5 2.3 9.15 Q1.95 8.3 1.95 7.35 L2.05 6.4 M12.85 5.25 L12.65 7.1 12.35 7 11 6.7 9.35 6.5 8.95 6.5 8.45 6.5 7.95 6.6 7.5 6.8 7.15 7.05 7 7.35 7 6.05 7 5.5 7.15 5.2 7.5 4.9 7.95 4.8 8.45 4.7 8.95 4.7 9.35 4.7 11 4.85 12.85 5.25 M13.95 11.35 L14 12.2 Q14 13.7 13.45 14.85 L11.95 16.7 Q11 17.4 9.75 17.8 L7 18.15 5.75 18 4.4 17.7 3.1 17.25 1.95 16.8 2.2 15 3.1 15.35 4.4 15.85 5.75 16.15 7 16.3 9.75 15.9 Q11 15.55 11.95 14.85 L13.45 13 13.95 11.35"/>
  </g>
</svg>