<svg width="20" height="22" xmlns="http://www.w3.org/2000/svg" xmlns:xlink="http://www.w3.org/1999/xlink">
  <defs/>
  <g>
    <path stroke="none" fill="#556979" d="M16.15 0 Q17.75 0.05 18.85 1.15 L18.85 1.2 Q20 2.35 20 4 L20 4.05 Q20 5.65 18.85 6.85 L18 7.5 18.85 8.15 18.85 8.2 Q20 9.35 20 11 L20 18 Q20 19.65 18.85 20.85 17.7 22 16.05 22 L3.95 22 Q2.3 22 1.2 20.85 L1.15 20.85 Q0 19.65 0 18.05 L0 18 Q0 16.35 1.15 15.2 L1.2 15.15 2 14.5 1.2 13.85 1.15 13.85 Q0 12.65 0 11 L0 4 Q0 2.35 1.15 1.2 L1.2 1.15 Q2.25 0.05 3.85 0 L16.15 0 M17.8 3 L17.5 2.6 Q16.9 2 16.05 2 L3.95 2 Q3.1 2 2.55 2.6 1.95 3.15 1.95 3.95 L1.95 9.15 1.95 11 Q1.95 11.85 2.55 12.45 3.1 13 3.95 13 L14.05 13 14.05 16 3.95 16 Q3.1 16 2.55 16.6 L2.2 17 Q1.95 17.45 1.95 18 1.95 18.85 2.55 19.45 3.1 20 3.95 20 L16.05 20 Q16.9 20 17.5 19.45 18 18.85 18 18 L18 16.15 18 10.95 Q18 10.15 17.5 9.6 16.9 9 16.05 9 L5.9 9 5.9 6 16.05 6 Q16.9 6 17.5 5.45 18 4.85 18 4 L17.8 3"/>
    <path stroke="none" fill="#FFFFFF" d="M17.8 3 L17.5 3.45 Q16.9 4 16.05 4 L5.9 4 5.9 6 5.9 9 16.05 9 Q16.9 9 17.5 9.6 18 10.15 18 10.95 L18 16.15 Q18 16.85 17.5 17.45 16.9 18 16.05 18 L3.95 18 Q3.1 18 2.55 17.45 L2.2 17 2.55 16.6 Q3.1 16 3.95 16 L14.05 16 14.05 13 14.05 11 3.95 11 Q3.1 11 2.55 10.45 1.95 9.85 1.95 9.15 L1.95 3.95 Q1.95 3.15 2.55 2.6 3.1 2 3.95 2 L16.05 2 Q16.9 2 17.5 2.6 L17.8 3"/>
    <path stroke="none" fill="#C7E0F7" d="M17.8 3 L18 4 Q18 4.85 17.5 5.45 16.9 6 16.05 6 L5.9 6 5.9 4 16.05 4 Q16.9 4 17.5 3.45 L17.8 3 M1.95 9.15 Q1.95 9.85 2.55 10.45 3.1 11 3.95 11 L14.05 11 14.05 13 3.95 13 Q3.1 13 2.55 12.45 1.95 11.85 1.95 11 L1.95 9.15 M2.2 17 L2.55 17.45 Q3.1 18 3.95 18 L16.05 18 Q16.9 18 17.5 17.45 18 16.85 18 16.15 L18 18 Q18 18.85 17.5 19.45 16.9 20 16.05 20 L3.95 20 Q3.1 20 2.55 19.45 1.95 18.85 1.95 18 1.95 17.45 2.2 17"/>
  </g>
</svg>