<svg width="16" height="16" xmlns="http://www.w3.org/2000/svg" xmlns:xlink="http://www.w3.org/1999/xlink">
  <defs/>
  <g>
    <path stroke="none" fill="#999999" d="M2 14 L2 12 Q1.15 12 0.6 11.45 0 10.85 0 10 L0 8 Q0 7.15 0.6 6.6 L6.6 0.6 Q7.15 0 8 0 8.85 0 9.45 0.6 L15.45 6.6 Q16 7.15 16 8 L16 10 Q16 10.85 15.45 11.45 14.85 12 14 12 L14 14 Q14 14.85 13.45 15.45 12.85 16 12 16 L4 16 Q3.15 16 2.6 15.45 2 14.85 2 14 M12 10 L14 10 14 8 8 2 2 8 2 10 4 10 4 12 4 14 12 14 12 12 12 10"/>
    <path stroke="none" fill="#E5E5E5" d="M12 10 L12 12 4 12 4 10 12 10"/>
    <path stroke="none" fill="#FFFFFF" d="M12 10 L4 10 2 10 2 8 8 2 14 8 14 10 12 10 M12 12 L12 14 4 14 4 12 12 12"/>
  </g>
</svg>