<svg width="20" height="22" xmlns="http://www.w3.org/2000/svg" xmlns:xlink="http://www.w3.org/1999/xlink">
  <defs/>
  <g>
    <path stroke="none" fill="#556979" d="M16.15 0 Q17.7 0.05 18.85 1.15 L18.85 1.2 Q20 2.35 20 4 L20 4.05 Q20 5.65 18.85 6.85 L18 7.5 18.85 8.15 18.85 8.2 Q20 9.35 20 11 L20 11.05 Q20 12.65 18.85 13.85 L18 14.5 18.85 15.15 18.85 15.2 Q20 16.35 20 18 L20 18.05 Q20 19.65 18.85 20.85 17.65 22 16.05 22 L3.95 22 Q2.3 22 1.2 20.85 L1.15 20.85 Q0 19.65 0 18 L0 4 Q0 2.35 1.15 1.2 L1.2 1.15 Q2.25 0.05 3.85 0 L16.15 0 M17.75 3 L17.45 2.6 Q16.9 2 16.05 2 L3.95 2 Q3.1 2 2.55 2.6 1.95 3.15 1.95 3.95 L1.95 16.15 1.95 18 Q1.95 18.85 2.55 19.45 3.1 20 3.95 20 L16.05 20 Q16.9 20 17.45 19.45 18 18.85 18 18 L17.75 17 17.45 16.6 Q16.9 16 16.05 16 L5.9 16 5.9 13 16.05 13 Q16.9 13 17.45 12.45 18 11.85 18 11 L17.75 10 17.45 9.6 Q16.9 9 16.05 9 L5.9 9 5.9 6 16.05 6 Q16.9 6 17.45 5.45 18 4.85 18 4 L17.75 3"/>
    <path stroke="none" fill="#FFFFFF" d="M17.75 3 L17.45 3.45 Q16.9 4 16.05 4 L5.9 4 5.9 6 5.9 9 16.05 9 Q16.9 9 17.45 9.6 L17.75 10 17.45 10.45 Q16.9 11 16.05 11 L5.9 11 5.9 13 5.9 16 16.05 16 Q16.9 16 17.45 16.6 L17.75 17 17.45 17.45 Q16.9 18 16.05 18 L3.95 18 Q3.1 18 2.55 17.45 1.95 16.85 1.95 16.15 L1.95 3.95 Q1.95 3.15 2.55 2.6 3.1 2 3.95 2 L16.05 2 Q16.9 2 17.45 2.6 L17.75 3"/>
    <path stroke="none" fill="#C7E0F7" d="M17.75 3 L18 4 Q18 4.85 17.45 5.45 16.9 6 16.05 6 L5.9 6 5.9 4 16.05 4 Q16.9 4 17.45 3.45 L17.75 3 M1.95 16.15 Q1.95 16.85 2.55 17.45 3.1 18 3.95 18 L16.05 18 Q16.9 18 17.45 17.45 L17.75 17 18 18 Q18 18.85 17.45 19.45 16.9 20 16.05 20 L3.95 20 Q3.1 20 2.55 19.45 1.95 18.85 1.95 18 L1.95 16.15 M5.9 13 L5.9 11 16.05 11 Q16.9 11 17.45 10.45 L17.75 10 18 11 Q18 11.85 17.45 12.45 16.9 13 16.05 13 L5.9 13"/>
  </g>
</svg>