<svg width="16" height="16" xmlns="http://www.w3.org/2000/svg" xmlns:xlink="http://www.w3.org/1999/xlink">
  <defs/>
  <g>
    <path stroke="none" fill="#B17E00" d="M10.55 1.25 L11.95 3.05 13.85 3.85 Q15 4.15 15.55 5.1 16 5.75 16 6.9 16 7.85 15.5 8.65 L14.3 10.6 14.15 12.85 14.15 12.95 Q14.15 13.9 13.45 14.75 L13.6 14.6 Q13.05 15.4 12.15 15.8 L11.9 15.9 10.1 15.85 10.15 15.9 8.05 15.25 5.95 15.9 6 15.85 4.15 15.9 3.9 15.8 Q3.15 15.45 2.6 14.8 1.85 13.9 1.85 12.95 L1.8 10.65 0.5 8.65 0.55 8.65 Q0 7.85 0 6.9 0 5.6 0.65 4.95 1.15 4.1 2.25 3.85 L4.1 3.05 5.6 1.2 5.9 0.85 Q6.35 0.5 6.95 0.2 L7.15 0.15 Q7.95 -0.15 8.95 0.15 L9.3 0.25 Q9.95 0.55 10.5 1.25 L10.55 1.25 M10.7 13.95 L11.35 13.95 11.9 13.5 12.15 12.85 12.3 10 13.8 7.55 14 6.9 13.8 6.15 13.3 5.75 10.7 4.7 8.95 2.5 8.4 2.05 7.75 2.05 7.15 2.4 5.35 4.7 2.8 5.75 Q2.4 5.85 2.25 6.15 2 6.4 2 6.9 L2.2 7.55 3.75 10 3.85 12.85 4.1 13.5 4.7 13.95 5.35 13.95 8.05 13.15 10.7 13.95"/>
    <path stroke="none" fill="#FFB600" d="M10.7 13.95 L8.05 13.15 5.35 13.95 4.7 13.95 4.1 13.5 3.85 12.85 3.75 10 2.2 7.55 2 6.9 Q2 6.4 2.25 6.15 2.4 5.85 2.8 5.75 L5.35 4.7 7.15 2.4 7.75 2.05 8.4 2.05 8.95 2.5 10.7 4.7 13.3 5.75 13.8 6.15 14 6.9 13.8 7.55 12.3 10 12.15 12.85 11.9 13.5 11.35 13.95 10.7 13.95"/>
  </g>
</svg>