<svg width="20" height="22" xmlns="http://www.w3.org/2000/svg" xmlns:xlink="http://www.w3.org/1999/xlink">
  <defs/>
  <g>
    <path stroke="none" fill="#FFFFFF" d="M1.95 16.15 L1.95 3.95 Q1.95 3.35 2.3 2.85 2.65 2.35 3.25 2.15 L4.45 2.05 Q5.05 2.2 5.4 2.7 L14.05 12.7 14.05 3.95 Q14.05 3.15 14.65 2.6 15.2 2 16.05 2 16.9 2 17.45 2.6 18 3.15 18 3.95 L18 16.15 17.65 17.15 16.75 17.9 15.55 17.95 Q14.95 17.8 14.55 17.35 L5.9 7.35 5.9 9.35 5.9 16.15 Q5.9 16.85 5.35 17.45 4.8 18 3.95 18 3.1 18 2.55 17.45 1.95 16.85 1.95 16.15"/>
    <path stroke="none" fill="#556979" d="M1.95 16.15 L1.95 18 Q1.95 18.85 2.55 19.45 3.1 20 3.95 20 4.8 20 5.35 19.45 5.9 18.85 5.9 18 L5.9 16.15 5.9 9.35 14.55 19.35 Q14.95 19.8 15.55 19.95 L16.75 19.9 17.65 19.15 18 18 18 16.15 18 3.95 Q18 3.15 17.45 2.6 16.9 2 16.05 2 15.2 2 14.65 2.6 14.05 3.15 14.05 3.95 L14.05 12.7 5.4 2.7 Q5.05 2.2 4.45 2.05 L3.25 2.15 Q2.65 2.35 2.3 2.85 1.95 3.35 1.95 3.95 L1.95 16.15 M16.1 0 Q17.65 0 18.85 1.15 L18.85 1.2 Q20 2.35 20 4 L20 18 Q20 19.25 19.3 20.3 18.55 21.3 17.4 21.75 L15.1 21.9 15.05 21.9 Q13.85 21.55 13.1 20.65 L7.9 14.65 7.9 18 Q7.9 19.65 6.75 20.85 5.55 22 4 22 L3.95 22 Q2.3 22 1.15 20.85 L1.1 20.85 Q0 19.65 0 18 L0 4 Q0 2.75 0.7 1.75 L0.75 1.7 Q1.4 0.7 2.6 0.25 L2.55 0.25 4.95 0.1 4.95 0.15 Q6.1 0.45 6.9 1.35 L6.95 1.4 12.1 7.35 12.1 4 Q12.1 2.35 13.2 1.2 L13.25 1.15 Q14.35 0.05 15.95 0 L16.1 0"/>
    <path stroke="none" fill="#C7E0F7" d="M1.95 16.15 Q1.95 16.85 2.55 17.45 3.1 18 3.95 18 4.8 18 5.35 17.45 5.9 16.85 5.9 16.15 L5.9 18 Q5.9 18.85 5.35 19.45 4.8 20 3.95 20 3.1 20 2.55 19.45 1.95 18.85 1.95 18 L1.95 16.15 M5.9 9.35 L5.9 7.35 14.55 17.35 Q14.95 17.8 15.55 17.95 L16.75 17.9 17.65 17.15 18 16.15 18 18 17.65 19.15 16.75 19.9 15.55 19.95 Q14.95 19.8 14.55 19.35 L5.9 9.35"/>
  </g>
</svg>