<svg width="64" height="64" xmlns="http://www.w3.org/2000/svg" xmlns:xlink="http://www.w3.org/1999/xlink">
  <defs/>
  <g>
    <path stroke="none" fill="#8A3D36" d="M46 2 Q46 1.15 46.6 0.55 47.15 0 48 0 L60 0 Q60.85 0 61.45 0.55 L63.45 2.55 Q64 3.15 64 4 L64 16 Q64 16.85 63.45 17.4 62.85 18 62 18 61.15 18 60.6 17.4 L60 16.8 58.6 15.4 Q58 14.85 58 14 L58 10 56 10 Q55.15 10 54.6 9.4 54 8.85 54 8 L54 6 50 6 Q49.15 6 48.6 5.4 L47.2 4 46.6 3.4 Q46 2.85 46 2 M62 46 Q62.85 46 63.45 46.6 64 47.15 64 48 L64 60 Q64 60.85 63.45 61.45 L61.45 63.45 Q60.85 64 60 64 L48 64 Q47.15 64 46.6 63.45 46 62.85 46 62 46 61.15 46.6 60.6 L47.2 60 48.6 58.6 Q49.15 58 50 58 L54 58 54 56 Q54 55.15 54.6 54.6 55.15 54 56 54 L58 54 58 50 Q58 49.15 58.6 48.6 L60 47.2 60.6 46.6 Q61.15 46 62 46 M18 62 Q18 62.85 17.4 63.45 16.85 64 16 64 L4 64 Q3.15 64 2.55 63.45 L0.55 61.45 Q0 60.85 0 60 L0 48 Q0 47.15 0.55 46.6 1.15 46 2 46 2.85 46 3.4 46.6 L4 47.2 5.4 48.6 Q6 49.15 6 50 L6 54 8 54 Q8.85 54 9.4 54.6 10 55.15 10 56 L10 58 14 58 Q14.85 58 15.4 58.6 L16.8 60 17.4 60.6 Q18 61.15 18 62 M2 18 Q1.15 18 0.55 17.4 0 16.85 0 16 L0 4 Q0 3.15 0.55 2.55 L2.55 0.55 Q3.15 0 4 0 L16 0 Q16.85 0 17.4 0.55 18 1.15 18 2 18 2.85 17.4 3.4 L16.8 4 15.4 5.4 Q14.85 6 14 6 L10 6 10 8 Q10 8.85 9.4 9.4 8.85 10 8 10 L6 10 6 14 Q6 14.85 5.4 15.4 L4 16.8 3.4 17.4 Q2.85 18 2 18 M62 8 L62 4 60 2 56 2 52 2 48 2 50 4 52 4 56 4 58 6 56 6 56 8 58 8 58 6 60 8 60 12 60 14 62 16 62 12 62 8 M62 52 L62 48 60 50 60 52 60 56 58 58 58 56 56 56 56 58 58 58 56 60 52 60 50 60 48 62 52 62 56 62 60 62 62 60 62 56 62 52 M12 2 L8 2 4 2 2 4 2 8 2 12 2 16 4 14 4 12 4 8 6 6 6 8 8 8 8 6 6 6 8 4 12 4 14 4 16 2 12 2 M4 52 L4 50 2 48 2 52 2 56 2 60 4 62 8 62 12 62 16 62 14 60 12 60 8 60 6 58 8 58 8 56 6 56 6 58 4 56 4 52"/>
    <path stroke="none" fill="#EC6A5E" d="M4 52 L2 52 2 48 4 50 4 52 M56 2 L60 2 62 4 62 8 60 8 58 6 58 8 56 8 56 6 58 6 56 4 56 2 M62 12 L62 16 60 14 60 12 62 12 M52 4 L50 4 48 2 52 2 52 4 M60 52 L60 50 62 48 62 52 60 52 M62 56 L62 60 60 62 56 62 56 60 58 58 56 58 56 56 58 56 58 58 60 56 62 56 M52 62 L48 62 50 60 52 60 52 62 M12 4 L12 2 16 2 14 4 12 4 M8 2 L8 4 6 6 8 6 8 8 6 8 6 6 4 8 2 8 2 4 4 2 8 2 M4 12 L4 14 2 16 2 12 4 12 M4 56 L6 58 6 56 8 56 8 58 6 58 8 60 8 62 4 62 2 60 2 56 4 56 M12 60 L14 60 16 62 12 62 12 60"/>
    <path stroke="none" fill="#CF5E53" d="M12 60 L12 62 8 62 8 60 12 60 M62 8 L62 12 60 12 60 8 62 8 M56 4 L52 4 52 2 56 2 56 4 M62 52 L62 56 60 56 60 52 62 52 M56 62 L52 62 52 60 56 60 56 62 M12 2 L12 4 8 4 8 2 12 2 M4 8 L4 12 2 12 2 8 4 8 M2 52 L4 52 4 56 2 56 2 52"/>
    <path stroke="none" fill="#515F6B" d="M46 2 Q46 2.85 46.6 3.4 L47.2 4 16.8 4 17.4 3.4 Q18 2.85 18 2 L46 2 M60 16.8 L60.6 17.4 Q61.15 18 62 18 L62 46 Q61.15 46 60.6 46.6 L60 47.2 60 16.8 M46 62 L18 62 Q18 61.15 17.4 60.6 L16.8 60 47.2 60 46.6 60.6 Q46 61.15 46 62 M2 46 L2 18 Q2.85 18 3.4 17.4 L4 16.8 4 47.2 3.4 46.6 Q2.85 46 2 46"/>
    <path stroke="none" fill="#778D9F" d="M47.2 4 L48.6 5.4 Q49.15 6 50 6 L54 6 54 8 10 8 10 6 14 6 Q14.85 6 15.4 5.4 L16.8 4 47.2 4 M56 10 L58 10 58 14 Q58 14.85 58.6 15.4 L60 16.8 60 47.2 58.6 48.6 Q58 49.15 58 50 L58 54 56 54 56 10 M50 11 L49.7 11.7 49 12 Q48.6 12 48.3 11.7 48 11.4 48 11 48 10.6 48.3 10.3 48.6 10 49 10 49.4 10 49.7 10.3 L50 11 M54 11 L53.7 11.7 53 12 Q52.6 12 52.3 11.7 52 11.4 52 11 52 10.6 52.3 10.3 52.6 10 53 10 53.4 10 53.7 10.3 L54 11 M54 15 L53.7 15.7 53 16 Q52.6 16 52.3 15.7 52 15.4 52 15 52 14.6 52.3 14.3 52.6 14 53 14 53.4 14 53.7 14.3 L54 15 M54 49 L53.7 49.7 53 50 Q52.6 50 52.3 49.7 52 49.4 52 49 52 48.6 52.3 48.3 52.6 48 53 48 53.4 48 53.7 48.3 L54 49 M54 53 L53.7 53.7 53 54 Q52.6 54 52.3 53.7 52 53.4 52 53 52 52.6 52.3 52.3 52.6 52 53 52 53.4 52 53.7 52.3 L54 53 M50 53 L49.7 53.7 49 54 Q48.6 54 48.3 53.7 48 53.4 48 53 48 52.6 48.3 52.3 48.6 52 49 52 49.4 52 49.7 52.3 L50 53 M54 56 L54 58 50 58 Q49.15 58 48.6 58.6 L47.2 60 16.8 60 15.4 58.6 Q14.85 58 14 58 L10 58 10 56 54 56 M12 11 L11.7 11.7 11 12 Q10.6 12 10.3 11.7 10 11.4 10 11 10 10.6 10.3 10.3 10.6 10 11 10 11.4 10 11.7 10.3 L12 11 M8 10 L8 54 6 54 6 50 Q6 49.15 5.4 48.6 L4 47.2 4 16.8 5.4 15.4 Q6 14.85 6 14 L6 10 8 10 M12 15 L11.7 15.7 11 16 Q10.6 16 10.3 15.7 10 15.4 10 15 10 14.6 10.3 14.3 10.6 14 11 14 11.4 14 11.7 14.3 L12 15 M16 11 L15.7 11.7 15 12 Q14.6 12 14.3 11.7 L14 11 Q14 10.6 14.3 10.3 14.6 10 15 10 15.4 10 15.7 10.3 L16 11 M16 53 L15.7 53.7 15 54 Q14.6 54 14.3 53.7 L14 53 Q14 52.6 14.3 52.3 14.6 52 15 52 15.4 52 15.7 52.3 L16 53 M12 49 L11.7 49.7 11 50 Q10.6 50 10.3 49.7 10 49.4 10 49 10 48.6 10.3 48.3 10.6 48 11 48 11.4 48 11.7 48.3 L12 49 M12 53 L11.7 53.7 11 54 Q10.6 54 10.3 53.7 10 53.4 10 53 10 52.6 10.3 52.3 10.6 52 11 52 11.4 52 11.7 52.3 L12 53"/>
    <path stroke="none" fill="#647685" d="M12 53 L11.7 52.3 Q11.4 52 11 52 10.6 52 10.3 52.3 10 52.6 10 53 10 53.4 10.3 53.7 10.6 54 11 54 L11.7 53.7 12 53 M54 8 Q54 8.85 54.6 9.4 55.15 10 56 10 L56 54 Q55.15 54 54.6 54.6 54 55.15 54 56 L10 56 Q10 55.15 9.4 54.6 8.85 54 8 54 L8 10 Q8.85 10 9.4 9.4 10 8.85 10 8 L54 8 M50 11 L49.7 10.3 Q49.4 10 49 10 48.6 10 48.3 10.3 48 10.6 48 11 48 11.4 48.3 11.7 48.6 12 49 12 L49.7 11.7 50 11 M54 15 L53.7 14.3 Q53.4 14 53 14 52.6 14 52.3 14.3 52 14.6 52 15 52 15.4 52.3 15.7 52.6 16 53 16 L53.7 15.7 54 15 M54 11 L53.7 10.3 Q53.4 10 53 10 52.6 10 52.3 10.3 52 10.6 52 11 52 11.4 52.3 11.7 52.6 12 53 12 L53.7 11.7 54 11 M54 53 L53.7 52.3 Q53.4 52 53 52 52.6 52 52.3 52.3 52 52.6 52 53 52 53.4 52.3 53.7 52.6 54 53 54 L53.7 53.7 54 53 M54 49 L53.7 48.3 Q53.4 48 53 48 52.6 48 52.3 48.3 52 48.6 52 49 52 49.4 52.3 49.7 52.6 50 53 50 L53.7 49.7 54 49 M50 53 L49.7 52.3 Q49.4 52 49 52 48.6 52 48.3 52.3 48 52.6 48 53 48 53.4 48.3 53.7 48.6 54 49 54 L49.7 53.7 50 53 M12 11 L11.7 10.3 Q11.4 10 11 10 10.6 10 10.3 10.3 10 10.6 10 11 10 11.4 10.3 11.7 10.6 12 11 12 L11.7 11.7 12 11 M12 49 L11.7 48.3 Q11.4 48 11 48 10.6 48 10.3 48.3 10 48.6 10 49 10 49.4 10.3 49.7 10.6 50 11 50 L11.7 49.7 12 49 M16 53 L15.7 52.3 Q15.4 52 15 52 14.6 52 14.3 52.3 14 52.6 14 53 L14.3 53.7 Q14.6 54 15 54 L15.7 53.7 16 53 M16 11 L15.7 10.3 Q15.4 10 15 10 14.6 10 14.3 10.3 14 10.6 14 11 L14.3 11.7 Q14.6 12 15 12 L15.7 11.7 16 11 M12 15 L11.7 14.3 Q11.4 14 11 14 10.6 14 10.3 14.3 10 14.6 10 15 10 15.4 10.3 15.7 10.6 16 11 16 L11.7 15.7 12 15"/>
  </g>
</svg>