<svg width="64" height="64" xmlns="http://www.w3.org/2000/svg" xmlns:xlink="http://www.w3.org/1999/xlink">
  <defs/>
  <g>
    <path stroke="none" fill="#3B6891" d="M54 0 L54 2 10 2 10 0 54 0 M62 10 L64 10 64 54 62 54 62 10 M54 62 L54 64 10 64 10 62 54 62 M2 10 L2 54 0 54 0 10 2 10"/>
    <path stroke="none" fill="#647685" d="M2 10 L0 10 0 5 Q0 0 5 0 L10 0 10 2 5 2 Q2 2 2 5 L2 10 M54 2 L54 0 59 0 Q64 0 64 5 L64 10 62 10 62 5 Q62 2 59 2 L54 2 M62 54 L64 54 64 59 Q64 64 59 64 L54 64 54 62 59 62 Q62 62 62 59 L62 54 M10 62 L10 64 5 64 Q0 64 0 59 L0 54 2 54 2 59 Q2 62 5 62 L10 62"/>
    <path stroke="none" fill="#94AFC6" d="M10 62 L5 62 Q2 62 2 59 L2 54 6 54 10 58 10 62 M54 2 L59 2 Q62 2 62 5 L62 10 58 10 54 6 54 2 M53.05 10 L53 10 Q52.6 10 52.3 10.3 52 10.6 52 11 52 11.4 52.3 11.7 52.6 12 53 12 L53.7 11.7 54 11.05 54 11 53.7 10.3 53.05 10 M54 8 L56 10 56 54 54 56 10 56 8 54 8 10 10 8 54 8 M58 54 L62 54 62 59 Q62 62 59 62 L54 62 54 58 58 54 M53 52 Q52.6 52 52.3 52.3 52 52.6 52 53 52 53.4 52.3 53.7 52.6 54 53 54 L53.05 54 53.7 53.7 54 53.05 54 53 53.7 52.3 Q53.4 52 53 52 M2 10 L2 5 Q2 2 5 2 L10 2 10 6 6 10 2 10 M11.05 10 L11 10 Q10.6 10 10.3 10.3 10 10.6 10 11 L10 11.05 10.3 11.7 Q10.6 12 11 12 L11.7 11.7 12 11 11.7 10.3 Q11.4 10 11.05 10 M11 52 Q10.6 52 10.3 52.3 10 52.6 10 53 10 53.4 10.3 53.7 10.6 54 11 54 L11.7 53.7 12 53 11.7 52.3 Q11.4 52 11 52"/>
    <path stroke="none" fill="#5CA2E0" d="M10 2 L54 2 54 6 10 6 10 2 M58 10 L62 10 62 54 58 54 58 10 M54 58 L54 62 10 62 10 58 54 58 M2 10 L6 10 6 54 2 54 2 10"/>
    <path stroke="none" fill="#778D9F" d="M53.05 10 L53.7 10.3 54 11 54 11.05 53.7 11.7 53 12 Q52.6 12 52.3 11.7 52 11.4 52 11 52 10.6 52.3 10.3 52.6 10 53 10 L53.05 10 M53 52 Q53.4 52 53.7 52.3 L54 53 54 53.05 53.7 53.7 53.05 54 53 54 Q52.6 54 52.3 53.7 52 53.4 52 53 52 52.6 52.3 52.3 52.6 52 53 52 M11.05 10 Q11.4 10 11.7 10.3 L12 11 11.7 11.7 11 12 Q10.6 12 10.3 11.7 L10 11.05 10 11 Q10 10.6 10.3 10.3 10.6 10 11 10 L11.05 10 M11 52 Q11.4 52 11.7 52.3 L12 53 11.7 53.7 11 54 Q10.6 54 10.3 53.7 10 53.4 10 53 10 52.6 10.3 52.3 10.6 52 11 52"/>
    <path stroke="none" fill="#A2C0D9" d="M54 8 L10 8 8 10 8 54 10 56 54 56 56 54 56 10 54 8 M54 6 L58 10 58 54 54 58 10 58 6 54 6 10 10 6 54 6"/>
  </g>
</svg>