<svg width="64" height="64" xmlns="http://www.w3.org/2000/svg" xmlns:xlink="http://www.w3.org/1999/xlink">
  <defs/>
  <g>
    <path stroke="none" fill="#515F6B" d="M46 6 L46 4 Q46 3.15 46.6 2.55 47.15 2 48 2 L60 2 Q60.85 2 61.45 2.55 62 3.15 62 4 L62 16 Q62 16.85 61.45 17.4 60.85 18 60 18 L58 18 Q57.15 18 56.6 17.4 L56 16.8 54.6 15.4 Q54 14.85 54 14.1 L54 13.9 Q54 13.15 54.6 12.55 L56 11.15 56 10.85 56 8 53.2 8 52.85 8 51.45 9.4 Q50.85 10 50.1 10 L49.9 10 Q49.15 10 48.6 9.4 L47.2 8 46.6 7.4 Q46 6.85 46 6 M57 21 L58 21 Q58.85 21 59.4 21.6 60 22.15 60 23 L60 26.15 61.4 27.6 Q62 28.15 62 29 62.85 29 63.4 29.6 64 30.15 64 31 L64 33 Q64 33.85 63.4 34.45 62.85 35 62 35 62 35.85 61.4 36.45 L60 37.85 60 41 Q60 41.85 59.4 42.45 58.85 43 58 43 L56 43 Q55.15 43 54.55 42.45 54 41.85 54 41 L54 35 Q54 34.15 54.55 33.6 L56 32.15 56.15 32 56 31.85 54.55 30.45 Q54 29.85 54 29 L54 23 54.2 22.2 54.55 21.6 Q55.15 21 56 21 L57 21 M58 46 L60 46 Q60.85 46 61.45 46.6 62 47.15 62 48 L62 60 Q62 60.85 61.45 61.45 60.85 62 60 62 L48 62 Q47.15 62 46.6 61.45 46 60.85 46 60 L46 58 Q46 57.15 46.6 56.6 L47.2 56 48.6 54.6 Q49.15 54 49.9 54 L50.1 54 Q50.85 54 51.45 54.6 L52.85 56 53.2 56 56 56 56 53.2 56 52.85 54.6 51.45 Q54 50.85 54 50.1 L54 49.9 Q54 49.15 54.6 48.6 L56 47.2 56.6 46.6 Q57.15 46 58 46 M43 57 L43 58 Q43 58.85 42.45 59.4 41.85 60 41 60 L37.85 60 36.45 61.4 Q35.85 62 35 62 35 62.85 34.45 63.4 33.85 64 33 64 L31 64 Q30.15 64 29.6 63.4 29 62.85 29 62 28.15 62 27.6 61.4 L26.15 60 23 60 Q22.15 60 21.6 59.4 21 58.85 21 58 L21 56 Q21 55.15 21.6 54.55 22.15 54 23 54 L29 54 Q29.85 54 30.45 54.55 L31.85 56 32 56.15 32.15 56 33.6 54.55 Q34.15 54 35 54 L41 54 41.85 54.15 42.45 54.55 Q43 55.15 43 56 L43 57 M18 58 L18 60 Q18 60.85 17.4 61.45 16.85 62 16 62 L4 62 Q3.15 62 2.55 61.45 2 60.85 2 60 L2 48 Q2 47.15 2.55 46.6 3.15 46 4 46 L6 46 Q6.85 46 7.4 46.6 L8.4 47.6 9.4 48.6 Q10 49.15 10 49.9 L10 50.1 Q10 50.85 9.4 51.45 L8 52.85 8 53.2 8 56 10.85 56 11.15 56 12.55 54.6 Q13.15 54 13.9 54 L14.1 54 Q14.85 54 15.4 54.6 L16.8 56 17.4 56.6 Q18 57.15 18 58 M6 43 Q5.15 43 4.6 42.45 4 41.85 4 41 L4 37.85 2.6 36.45 Q2 35.85 2 35 1.15 35 0.6 34.45 0 33.85 0 33 L0 31 Q0 30.15 0.6 29.6 1.15 29 2 29 2 28.15 2.6 27.6 L4 26.15 4 23 Q4 22.15 4.6 21.6 5.15 21 6 21 L8 21 Q8.85 21 9.45 21.6 10 22.15 10 23 L10 29 Q10 29.85 9.45 30.45 L8 31.85 7.85 32 8 32.15 9.45 33.6 Q10 34.15 10 35 L10 41 Q10 41.85 9.45 42.45 8.85 43 8 43 L6 43 M6 18 L4 18 Q3.15 18 2.55 17.4 2 16.85 2 16 L2 4 Q2 3.15 2.55 2.55 3.15 2 4 2 L16 2 Q16.85 2 17.4 2.55 18 3.15 18 4 L18 6 Q18 6.85 17.4 7.4 L16.8 8 15.4 9.4 Q14.85 10 14.1 10 L13.9 10 Q13.15 10 12.55 9.4 L11.15 8 10.85 8 8 8 8 10.85 8 11.15 9.4 12.55 Q10 13.15 10 13.9 L10 14.1 Q10 14.85 9.4 15.4 L8 16.8 7.4 17.4 Q6.85 18 6 18 M21 7 L21 6 Q21 5.15 21.6 4.6 22.15 4 23 4 L26.15 4 27.6 2.6 Q28.15 2 29 2 29 1.15 29.6 0.6 30.15 0 31 0 L33 0 Q33.85 0 34.45 0.6 35 1.15 35 2 35.85 2 36.45 2.6 L37.85 4 41 4 Q41.85 4 42.45 4.6 43 5.15 43 6 L43 8 Q43 8.85 42.45 9.45 41.85 10 41 10 L35 10 Q34.15 10 33.6 9.45 L32.15 8 32 7.85 31.85 8 30.45 9.45 Q29.85 10 29 10 L23 10 22.2 9.85 21.6 9.45 Q21 8.85 21 8 L21 7 M35 4 L33 4 33 2 31 2 31 4 29 4 27.15 5.9 27 6 23 6 23 8 29 8 29.15 7.9 31 6 33 6 35 8 41 8 41 6 37 6 35 4 M52 4 L48 4 48 6 50 8 52 6 56 6 58 8 58 12 56 14 58 16 60 16 60 12 60 4 52 4 M58.1 27.15 L58 27 58 23 56 23 56 29 56.1 29.15 58 31 58 33 56 35 56 41 58 41 58 37 60 35 60 33 62 33 62 31 60 31 60 29 58.1 27.15 M60 52 L60 48 58 48 56 50 58 52 58 56 56 58 52 58 50 56 48 58 48 60 52 60 60 60 60 52 M37 58 L41 58 41 56 35 56 33 58 31 58 29.15 56.1 29 56 23 56 23 58 27 58 27.15 58.1 29 60 31 60 31 62 33 62 33 60 35 60 37 58 M12 6 L14 8 16 6 16 4 12 4 4 4 4 12 4 16 6 16 8 14 6 12 6 8 8 6 12 6 M4 29 L4 31 2 31 2 33 4 33 4 35 6 37 6 41 8 41 8 35 6 33 6 31 7.9 29.15 8 29 8 23 6 23 6 27 5.9 27.15 4 29 M6 52 L8 50 6 48 4 48 4 52 4 60 12 60 16 60 16 58 14 56 12 58 8 58 6 56 6 52"/>
    <path stroke="none" fill="#94AFC6" d="M6 52 L6 56 8 58 12 58 12 60 4 60 4 52 6 52 M29 4 L31 4 31 2 33 2 33 4 35 4 33 6 31 6 29 4 M37 6 L41 6 41 8 35 8 37 6 M29.15 7.9 L29 8 23 8 23 6 27 6 27.15 5.9 29.15 7.9 M52 6 L52 4 60 4 60 12 58 12 58 8 56 6 52 6 M56.1 29.15 L56 29 56 23 58 23 58 27 58.1 27.15 56.1 29.15 M60 29 L60 31 62 31 62 33 60 33 60 35 58 33 58 31 60 29 M58 37 L58 41 56 41 56 35 58 37 M60 52 L60 60 52 60 52 58 56 58 58 56 58 52 60 52 M35 56 L41 56 41 58 37 58 35 56 M35 60 L33 60 33 62 31 62 31 60 29 60 31 58 33 58 35 60 M27.15 58.1 L27 58 23 58 23 56 29 56 29.15 56.1 27.15 58.1 M12 6 L8 6 6 8 6 12 4 12 4 4 12 4 12 6 M4 35 L4 33 2 33 2 31 4 31 4 29 6 31 6 33 4 35 M5.9 27.15 L6 27 6 23 8 23 8 29 7.9 29.15 5.9 27.15 M6 37 L8 35 8 41 6 41 6 37"/>
    <path stroke="none" fill="#778D9F" d="M6 37 L4 35 6 33 8 35 6 37 M35 4 L37 6 35 8 33 6 35 4 M31 6 L29.15 7.9 27.15 5.9 29 4 31 6 M52 6 L50 8 48 6 48 4 52 4 52 6 M60 12 L60 16 58 16 56 14 58 12 60 12 M58.1 27.15 L60 29 58 31 56.1 29.15 58.1 27.15 M60 35 L58 37 56 35 58 33 60 35 M58 52 L56 50 58 48 60 48 60 52 58 52 M52 60 L48 60 48 58 50 56 52 58 52 60 M35 56 L37 58 35 60 33 58 35 56 M29 60 L27.15 58.1 29.15 56.1 31 58 29 60 M12 4 L16 4 16 6 14 8 12 6 12 4 M6 12 L8 14 6 16 4 16 4 12 6 12 M6 31 L4 29 5.9 27.15 7.9 29.15 6 31 M4 52 L4 48 6 48 8 50 6 52 4 52 M12 58 L14 56 16 58 16 60 12 60 12 58"/>
    <path stroke="none" fill="#6D4B27" d="M46 6 Q46 6.85 46.6 7.4 L47.2 8 43 8 43 6 46 6 M53.2 8 L56 8 56 10.85 Q55.9 8.1 53.2 8 M56 16.8 L56.6 17.4 Q57.15 18 58 18 L58 20 57 21 56 21 Q55.15 21 54.55 21.6 L54.2 22.2 54 22 56 20 56 16.8 M58 43 L58 46 Q57.15 46 56.6 46.6 L56 47.2 56 43 58 43 M46 58 L44 58 43 57 43 56 Q43 55.15 42.45 54.55 L41.85 54.15 42 54 44 56 47.2 56 46.6 56.6 Q46 57.15 46 58 M21 58 L18 58 Q18 57.15 17.4 56.6 L16.8 56 21 56 21 58 M7.4 46.6 L8 46 6 44 6 43 8 43 8 44 10 46 8.4 47.6 7.4 46.6 M6 21 L6 18 Q6.85 18 7.4 17.4 L8 16.8 8 21 6 21 M18 6 L20 6 21 7 21 8 Q21 8.85 21.6 9.45 L22.2 9.85 22 10 20 8 16.8 8 17.4 7.4 Q18 6.85 18 6 M32.15 8 L31.85 8 32 7.85 32.15 8 M10.85 8 Q8.1 8.1 8 10.85 L8 8 10.85 8 M8 31.85 L8 32.15 7.85 32 8 31.85 M8 53.2 Q8.1 55.9 10.85 56 L8 56 8 53.2 M31.85 56 L32.15 56 32 56.15 31.85 56 M53.2 56 Q55.9 55.9 56 53.2 L56 56 53.2 56"/>
    <path stroke="none" fill="#B47B41" d="M53.2 56 L52.85 56 51.45 54.6 Q50.85 54 50.1 54 L49.9 54 Q49.15 54 48.6 54.6 L47.2 56 44 56 42 54 41.85 54.15 41 54 35 54 Q34.15 54 33.6 54.55 L32.15 56 31.85 56 30.45 54.55 Q29.85 54 29 54 L23 54 Q22.15 54 21.6 54.55 21 55.15 21 56 L16.8 56 15.4 54.6 Q14.85 54 14.1 54 L13.9 54 Q13.15 54 12.55 54.6 L11.15 56 10.85 56 Q8.1 55.9 8 53.2 L8 52.85 9.4 51.45 Q10 50.85 10 50.1 L10 49.9 Q10 49.15 9.4 48.6 L8.4 47.6 10 46 8 44 8 43 Q8.85 43 9.45 42.45 10 41.85 10 41 L10 35 Q10 34.15 9.45 33.6 L8 32.15 8 31.85 9.45 30.45 Q10 29.85 10 29 L10 23 Q10 22.15 9.45 21.6 8.85 21 8 21 L8 16.8 9.4 15.4 Q10 14.85 10 14.1 L10 13.9 Q10 13.15 9.4 12.55 L8 11.15 8 10.85 Q8.1 8.1 10.85 8 L11.15 8 12.55 9.4 Q13.15 10 13.9 10 L14.1 10 Q14.85 10 15.4 9.4 L16.8 8 20 8 22 10 22.2 9.85 23 10 29 10 Q29.85 10 30.45 9.45 L31.85 8 32.15 8 33.6 9.45 Q34.15 10 35 10 L41 10 Q41.85 10 42.45 9.45 43 8.85 43 8 L47.2 8 48.6 9.4 Q49.15 10 49.9 10 L50.1 10 Q50.85 10 51.45 9.4 L52.85 8 53.2 8 Q55.9 8.1 56 10.85 L56 11.15 54.6 12.55 Q54 13.15 54 13.9 L54 14.1 Q54 14.85 54.6 15.4 L56 16.8 56 20 54 22 54.2 22.2 54 23 54 29 Q54 29.85 54.55 30.45 L56 31.85 56 32.15 54.55 33.6 Q54 34.15 54 35 L54 41 Q54 41.85 54.55 42.45 55.15 43 56 43 L56 47.2 54.6 48.6 Q54 49.15 54 49.9 L54 50.1 Q54 50.85 54.6 51.45 L56 52.85 56 53.2 Q55.9 55.9 53.2 56 M12 52 L52 52 52 12 12 12 12 52"/>
    <path stroke="none" fill="#D2C6AC" d="M48 14 L50 14 50 16 48 14 M50 48 L50 50 48 50 50 48 M16 50 L14 50 14 48 16 50 M14 16 L14 14 16 14 14 16"/>
    <path stroke="none" fill="#FFF1D2" d="M14 16 L16 14 34 14 36 16 38 14 48 14 50 16 50 34 49 35 50 36 50 48 48 50 32 50 31.95 49.95 31.95 50 16 50 14 48 14 26 15 25 14 24 14 16"/>
    <path stroke="none" fill="#A3703A" d="M14 16 L14 24 15 25 14 26 14 48 14 50 16 50 31.95 50 31.95 49.95 32 50 48 50 50 50 50 48 50 36 49 35 50 34 50 16 50 14 48 14 38 14 36 16 34 14 16 14 14 14 14 16 M12 52 L12 12 52 12 52 52 12 52"/>
  </g>
</svg>