<svg width="64" height="64" xmlns="http://www.w3.org/2000/svg" xmlns:xlink="http://www.w3.org/1999/xlink">
  <defs/>
  <g>
    <path stroke="none" fill="#6D4B27" d="M64 5 L64 14 62 16 64 18 64 22 63 23 64 24 64 59 Q64 64 59 64 L50 64 48 62 46 64 5 64 Q0 64 0 59 L0 48 2 46 0 44 0 5 Q0 0 5 0 L10 0 12 2 14 0 18 0 19 1 20 0 59 0 Q64 0 64 5 M59 2 L20 2 19 3 18 2 14 2 12 4 10 2 5 2 Q2 2 2 5 L2 44 4 46 2 48 2 59 Q2 62 5 62 L46 62 48 60 50 62 59 62 Q62 62 62 59 L62 24 61 23 62 22 62 18 60 16 62 14 62 5 Q62 2 59 2"/>
    <path stroke="none" fill="#B47B41" d="M59 2 Q62 2 62 5 L62 14 60 16 62 18 62 22 61 23 62 24 62 59 Q62 62 59 62 L50 62 48 60 46 62 5 62 Q2 62 2 59 L2 48 4 46 2 44 2 5 Q2 2 5 2 L10 2 12 4 14 2 18 2 19 3 20 2 59 2 M6 6 L6 58 58 58 58 6 6 6"/>
    <path stroke="none" fill="#A3703A" d="M6 6 L58 6 58 58 6 58 6 6"/>
  </g>
</svg>