<svg width="64" height="64" xmlns="http://www.w3.org/2000/svg" xmlns:xlink="http://www.w3.org/1999/xlink">
  <defs/>
  <g>
    <path stroke="none" fill="#515F6B" d="M21 7 L21 6 Q21 5.15 21.6 4.6 22.15 4 23 4 L26.15 4 27.6 2.6 Q28.15 2 29 2 29 1.15 29.6 0.6 30.15 0 31 0 L33 0 Q33.85 0 34.45 0.6 35 1.15 35 2 35.85 2 36.45 2.6 L37.85 4 41 4 Q41.85 4 42.45 4.6 43 5.15 43 6 L43 8 Q43 8.85 42.45 9.45 41.85 10 41 10 L35 10 Q34.15 10 33.6 9.45 L32.15 8 32 7.85 31.85 8 30.45 9.45 Q29.85 10 29 10 L23 10 22.2 9.85 21.6 9.45 Q21 8.85 21 8 L21 7 M57 21 L58 21 Q58.85 21 59.4 21.6 60 22.15 60 23 L60 26.15 61.4 27.6 Q62 28.15 62 29 62.85 29 63.4 29.6 64 30.15 64 31 L64 33 Q64 33.85 63.4 34.45 62.85 35 62 35 62 35.85 61.4 36.45 L60 37.85 60 41 Q60 41.85 59.4 42.45 58.85 43 58 43 L56 43 Q55.15 43 54.55 42.45 54 41.85 54 41 L54 35 Q54 34.15 54.55 33.6 L56 32.15 56.15 32 56 31.85 54.55 30.45 Q54 29.85 54 29 L54 23 54.2 22.2 54.55 21.6 Q55.15 21 56 21 L57 21 M43 57 L43 58 Q43 58.85 42.45 59.4 41.85 60 41 60 L37.85 60 36.45 61.4 Q35.85 62 35 62 35 62.85 34.45 63.4 33.85 64 33 64 L31 64 Q30.15 64 29.6 63.4 29 62.85 29 62 28.15 62 27.6 61.4 L26.15 60 23 60 Q22.15 60 21.6 59.4 21 58.85 21 58 L21 56 Q21 55.15 21.6 54.55 22.15 54 23 54 L29 54 Q29.85 54 30.45 54.55 L31.85 56 32 56.15 32.15 56 33.6 54.55 Q34.15 54 35 54 L41 54 41.85 54.15 42.45 54.55 Q43 55.15 43 56 L43 57 M6 43 Q5.15 43 4.6 42.45 4 41.85 4 41 L4 37.85 2.6 36.45 Q2 35.85 2 35 1.15 35 0.6 34.45 0 33.85 0 33 L0 31 Q0 30.15 0.6 29.6 1.15 29 2 29 2 28.15 2.6 27.6 L4 26.15 4 23 Q4 22.15 4.6 21.6 5.15 21 6 21 L8 21 Q8.85 21 9.45 21.6 10 22.15 10 23 L10 29 Q10 29.85 9.45 30.45 L8 31.85 7.85 32 8 32.15 9.45 33.6 Q10 34.15 10 35 L10 41 Q10 41.85 9.45 42.45 8.85 43 8 43 L6 43 M37 6 L35 4 33 4 33 2 31 2 31 4 29 4 27.15 5.9 27 6 23 6 23 8 29 8 29.15 7.9 31 6 33 6 35 8 41 8 41 6 37 6 M58.1 27.15 L58 27 58 23 56 23 56 29 56.1 29.15 58 31 58 33 56 35 56 41 58 41 58 37 60 35 60 33 62 33 62 31 60 31 60 29 58.1 27.15 M37 58 L41 58 41 56 35 56 33 58 31 58 29.15 56.1 29 56 23 56 23 58 27 58 27.15 58.1 29 60 31 60 31 62 33 62 33 60 35 60 37 58 M5.9 27.15 L4 29 4 31 2 31 2 33 4 33 4 35 6 37 6 41 8 41 8 35 6 33 6 31 7.9 29.15 8 29 8 23 6 23 6 27 5.9 27.15"/>
    <path stroke="none" fill="#778D9F" d="M5.9 27.15 L7.9 29.15 6 31 4 29 5.9 27.15 M35 4 L37 6 35 8 33 6 35 4 M31 6 L29.15 7.9 27.15 5.9 29 4 31 6 M58.1 27.15 L60 29 58 31 56.1 29.15 58.1 27.15 M60 35 L58 37 56 35 58 33 60 35 M35 56 L37 58 35 60 33 58 35 56 M29 60 L27.15 58.1 29.15 56.1 31 58 29 60 M4 35 L6 33 8 35 6 37 4 35"/>
    <path stroke="none" fill="#94AFC6" d="M4 35 L4 33 2 33 2 31 4 31 4 29 6 31 6 33 4 35 M37 6 L41 6 41 8 35 8 37 6 M33 6 L31 6 29 4 31 4 31 2 33 2 33 4 35 4 33 6 M29.15 7.9 L29 8 23 8 23 6 27 6 27.15 5.9 29.15 7.9 M56.1 29.15 L56 29 56 23 58 23 58 27 58.1 27.15 56.1 29.15 M60 29 L60 31 62 31 62 33 60 33 60 35 58 33 58 31 60 29 M58 37 L58 41 56 41 56 35 58 37 M35 56 L41 56 41 58 37 58 35 56 M35 60 L33 60 33 62 31 62 31 60 29 60 31 58 33 58 35 60 M27.15 58.1 L27 58 23 58 23 56 29 56 29.15 56.1 27.15 58.1 M7.9 29.15 L5.9 27.15 6 27 6 23 8 23 8 29 7.9 29.15 M6 37 L8 35 8 41 6 41 6 37"/>
    <path stroke="none" fill="#D2C6AC" d="M50 16 L48 14 50 14 50 16 M16 14 L14 16 14 14 16 14 M14 48 L16 50 14 50 14 48 M48 50 L50 48 50 50 48 50"/>
    <path stroke="none" fill="#FFF1D2" d="M48 50 L32 50 31.95 49.95 31.95 50 16 50 14 48 14 26 15 25 14 24 14 16 16 14 34 14 36 16 38 14 48 14 50 16 50 34 49 35 50 36 50 48 48 50"/>
    <path stroke="none" fill="#A3703A" d="M48 50 L50 50 50 48 50 36 49 35 50 34 50 16 50 14 48 14 38 14 36 16 34 14 16 14 14 14 14 16 14 24 15 25 14 26 14 48 14 50 16 50 31.95 50 31.95 49.95 32 50 48 50 M12 52 L12 12 52 12 52 52 12 52"/>
    <path stroke="none" fill="#B47B41" d="M12 52 L52 52 52 12 12 12 12 52 M22.2 9.85 L23 10 29 10 Q29.85 10 30.45 9.45 L31.85 8 32.15 8 33.6 9.45 Q34.15 10 35 10 L41 10 Q41.85 10 42.45 9.45 43 8.85 43 8 L53 8 Q56 8 56 11 L56 20 54 22 54.2 22.2 54 23 54 29 Q54 29.85 54.55 30.45 L56 31.85 56 32.15 54.55 33.6 Q54 34.15 54 35 L54 41 Q54 41.85 54.55 42.45 55.15 43 56 43 L56 53 Q56 56 53 56 L44 56 42 54 41.85 54.15 41 54 35 54 Q34.15 54 33.6 54.55 L32.15 56 31.85 56 30.45 54.55 Q29.85 54 29 54 L23 54 Q22.15 54 21.6 54.55 21 55.15 21 56 L11 56 Q8 56 8 53 L8 48 10 46 8 44 8 43 Q8.85 43 9.45 42.45 10 41.85 10 41 L10 35 Q10 34.15 9.45 33.6 L8 32.15 8 31.85 9.45 30.45 Q10 29.85 10 29 L10 23 Q10 22.15 9.45 21.6 8.85 21 8 21 L8 11 Q8 8 11 8 L20 8 22 10 22.2 9.85"/>
    <path stroke="none" fill="#6D4B27" d="M22.2 9.85 L22 10 20 8 11 8 Q8 8 8 11 L8 21 6 21 6 11 Q6 6 11 6 L20 6 21 7 21 8 Q21 8.85 21.6 9.45 L22.2 9.85 M43 6 L53 6 Q58 6 58 11 L58 20 57 21 56 21 Q55.15 21 54.55 21.6 L54.2 22.2 54 22 56 20 56 11 Q56 8 53 8 L43 8 43 6 M58 43 L58 53 Q58 58 53 58 L44 58 43 57 43 56 Q43 55.15 42.45 54.55 L41.85 54.15 42 54 44 56 53 56 Q56 56 56 53 L56 43 58 43 M21 58 L11 58 Q6 58 6 53 L6 48 8 46 6 44 6 43 8 43 8 44 10 46 8 48 8 53 Q8 56 11 56 L21 56 21 58 M31.85 8 L32 7.85 32.15 8 31.85 8 M32.15 56 L32 56.15 31.85 56 32.15 56 M8 32.15 L7.85 32 8 31.85 8 32.15"/>
  </g>
</svg>