<svg width="64" height="64" xmlns="http://www.w3.org/2000/svg" xmlns:xlink="http://www.w3.org/1999/xlink">
  <defs/>
  <g>
    <path stroke="none" fill="#6D4B27" d="M2 5 L2 44 3 45 2 46 2 50 4 52 2 54 2 59 Q2 62 5 62 L44 62 46 60 48 62 59 62 Q62 62 62 59 L62 18 60 16 62 14 62 5 Q62 2 59 2 L24 2 23 3 22 2 18 2 16 4 14 2 5 2 Q2 2 2 5 M5 0 L14 0 16 2 18 0 22 0 23 1 24 0 59 0 Q64 0 64 5 L64 14 62 16 64 18 64 59 Q64 64 59 64 L48 64 46 62 44 64 5 64 Q0 64 0 59 L0 54 2 52 0 50 0 46 1 45 0 44 0 5 Q0 0 5 0"/>
    <path stroke="none" fill="#B47B41" d="M2 5 Q2 2 5 2 L14 2 16 4 18 2 22 2 23 3 24 2 59 2 Q62 2 62 5 L62 14 60 16 62 18 62 59 Q62 62 59 62 L48 62 46 60 44 62 5 62 Q2 62 2 59 L2 54 4 52 2 50 2 46 3 45 2 44 2 5 M6 58 L58 58 58 6 6 6 6 58"/>
    <path stroke="none" fill="#A3703A" d="M6 58 L6 6 58 6 58 58 6 58 M54 8 L42 8 40 10 38 8 10 8 8 8 8 10 8 18 9 19 8 20 8 54 8 56 10 56 28 56 29 55 30 56 54 56 56 56 56 54 56 42 55 41 56 40 56 10 56 8 54 8"/>
    <path stroke="none" fill="#FFF1D2" d="M54 8 L56 10 56 40 55 41 56 42 56 54 54 56 30 56 29 55 28 56 10 56 8 54 8 20 9 19 8 18 8 10 10 8 38 8 40 10 42 8 54 8"/>
    <path stroke="none" fill="#D2C6AC" d="M54 8 L56 8 56 10 54 8 M56 54 L56 56 54 56 56 54 M10 56 L8 56 8 54 10 56 M8 10 L8 8 10 8 8 10"/>
  </g>
</svg>