<svg width="64" height="64" xmlns="http://www.w3.org/2000/svg" xmlns:xlink="http://www.w3.org/1999/xlink">
  <defs/>
  <g>
    <path stroke="none" fill="#6D4B27" d="M5 0 L14 0 16 2 18 0 22 0 23 1 24 0 59 0 Q64 0 64 5 L64 14 62 16 64 18 64 59 Q64 64 59 64 L48 64 46 62 44 64 5 64 Q0 64 0 59 L0 54 2 52 0 50 0 46 1 45 0 44 0 5 Q0 0 5 0 M2 5 L2 44 3 45 2 46 2 50 4 52 2 54 2 59 Q2 62 5 62 L44 62 46 60 48 62 59 62 Q62 62 62 59 L62 18 60 16 62 14 62 5 Q62 2 59 2 L24 2 23 3 22 2 18 2 16 4 14 2 5 2 Q2 2 2 5"/>
    <path stroke="none" fill="#B47B41" d="M2 5 Q2 2 5 2 L14 2 16 4 18 2 22 2 23 3 24 2 59 2 Q62 2 62 5 L62 14 60 16 62 18 62 59 Q62 62 59 62 L48 62 46 60 44 62 5 62 Q2 62 2 59 L2 54 4 52 2 50 2 46 3 45 2 44 2 5 M6 58 L58 58 58 6 6 6 6 58"/>
    <path stroke="none" fill="#63AFF3" d="M40 10 L52 10 52 8 54 8 54 10 56 10 56 12 54 12 54 24 56 24 56 26 54 26 54 38 56 38 56 40 54 40 54 52 56 52 56 54 54 54 54 56 52 56 52 54 40 54 40 56 38 56 38 54 26 54 26 56 24 56 24 54 12 54 12 56 10 56 10 54 8 54 8 52 10 52 10 40 8 40 8 38 10 38 10 26 8 26 8 24 10 24 10 12 8 12 8 10 10 10 10 8 12 8 12 10 24 10 24 8 26 8 26 10 38 10 38 8 40 10 M26 24 L38 24 38 12 26 12 26 24 M40 24 L52 24 52 12 40 12 40 24 M52 38 L52 26 40 26 40 38 52 38 M26 52 L38 52 38 40 26 40 26 52 M40 52 L52 52 52 40 40 40 40 52 M38 38 L38 26 26 26 26 38 38 38 M24 24 L24 12 12 12 12 24 24 24 M24 38 L24 26 12 26 12 38 24 38 M24 52 L24 40 12 40 12 52 24 52"/>
    <path stroke="none" fill="#5CA2E0" d="M24 52 L12 52 12 40 24 40 24 52 M52 8 L52 10 40 10 42 8 52 8 M38 8 L38 10 26 10 26 8 38 8 M24 8 L24 10 12 10 12 8 24 8 M10 8 L10 10 8 10 10 8 M8 12 L10 12 10 24 8 24 8 20 9 19 8 18 8 12 M8 26 L10 26 10 38 8 38 8 26 M8 40 L10 40 10 52 8 52 8 40 M8 54 L10 54 10 56 8 54 M12 56 L12 54 24 54 24 56 12 56 M26 56 L26 54 38 54 38 56 30 56 29 55 28 56 26 56 M40 56 L40 54 52 54 52 56 40 56 M54 56 L54 54 56 54 54 56 M56 52 L54 52 54 40 56 40 55 41 56 42 56 52 M56 38 L54 38 54 26 56 26 56 38 M56 24 L54 24 54 12 56 12 56 24 M56 10 L54 10 54 8 56 10 M52 38 L40 38 40 26 52 26 52 38 M40 24 L40 12 52 12 52 24 40 24 M26 24 L26 12 38 12 38 24 26 24 M40 52 L40 40 52 40 52 52 40 52 M26 52 L26 40 38 40 38 52 26 52 M38 38 L26 38 26 26 38 26 38 38 M24 24 L12 24 12 12 24 12 24 24 M24 38 L12 38 12 26 24 26 24 38"/>
    <path stroke="none" fill="#A3703A" d="M40 10 L38 8 26 8 24 8 12 8 10 8 8 8 8 10 8 12 8 18 9 19 8 20 8 24 8 26 8 38 8 40 8 52 8 54 8 56 10 56 12 56 24 56 26 56 28 56 29 55 30 56 38 56 40 56 52 56 54 56 56 56 56 54 56 52 56 42 55 41 56 40 56 38 56 26 56 24 56 12 56 10 56 8 54 8 52 8 42 8 40 10 M6 58 L6 6 58 6 58 58 6 58"/>
    <path stroke="none" fill="#4D8ABF" d="M54 8 L56 8 56 10 54 8 M54 56 L56 54 56 56 54 56 M10 8 L8 10 8 8 10 8 M8 54 L10 56 8 56 8 54"/>
  </g>
</svg>