<svg width="64" height="64" xmlns="http://www.w3.org/2000/svg" xmlns:xlink="http://www.w3.org/1999/xlink">
  <defs/>
  <g>
    <path stroke="none" fill="#515F6B" d="M62 18 L62 46 Q62.85 46 63.45 46.6 64 47.15 64 48 L64 60 Q64 60.85 63.45 61.45 L61.45 63.45 Q60.85 64 60 64 L48 64 Q47.15 64 46.6 63.45 46 62.85 46 62 L18 62 Q18 62.85 17.4 63.45 16.85 64 16 64 L4 64 Q3.15 64 2.55 63.45 L0.55 61.45 Q0 60.85 0 60 L0 48 Q0 47.15 0.55 46.6 1.15 46 2 46 L2 18 Q1.15 18 0.55 17.4 0 16.85 0 16 L0 4 Q0 3.15 0.55 2.55 L2.55 0.55 Q3.15 0 4 0 L16 0 Q16.85 0 17.4 0.55 18 1.15 18 2 L46 2 Q46 1.15 46.6 0.55 47.15 0 48 0 L60 0 Q60.85 0 61.45 0.55 L63.45 2.55 Q64 3.15 64 4 L64 16 Q64 16.85 63.45 17.4 62.85 18 62 18 M56 2 L52 2 48 2 50 4 52 4 56 4 58 6 60 8 60 12 60 14 62 16 62 12 62 8 62 4 60 2 56 2 M58 6 L56 6 56 8 58 8 58 6 M54 8 L54 6 50 6 Q49.15 6 48.6 5.4 L47.2 4 16.8 4 15.4 5.4 Q14.85 6 14 6 L10 6 10 8 Q10 8.85 9.4 9.4 8.85 10 8 10 L6 10 6 14 Q6 14.85 5.4 15.4 L4 16.8 4 47.2 5.4 48.6 Q6 49.15 6 50 L6 54 8 54 Q8.85 54 9.4 54.6 10 55.15 10 56 L10 58 14 58 Q14.85 58 15.4 58.6 L16.8 60 47.2 60 48.6 58.6 Q49.15 58 50 58 L54 58 54 56 Q54 55.15 54.6 54.6 55.15 54 56 54 L58 54 58 50 Q58 49.15 58.6 48.6 L60 47.2 60 16.8 58.6 15.4 Q58 14.85 58 14 L58 10 56 10 Q55.15 10 54.6 9.4 54 8.85 54 8 M62 52 L62 48 60 50 60 52 60 56 58 58 58 56 56 56 56 58 58 58 56 60 52 60 50 60 48 62 52 62 56 62 60 62 62 60 62 56 62 52 M12 4 L14 4 16 2 12 2 8 2 4 2 2 4 2 8 2 12 2 16 4 14 4 12 4 8 6 6 6 8 8 8 8 6 6 6 8 4 12 4 M4 52 L4 50 2 48 2 52 2 56 2 60 4 62 8 62 12 62 16 62 14 60 12 60 8 60 6 58 8 58 8 56 6 56 6 58 4 56 4 52"/>
    <path stroke="none" fill="#778D9F" d="M4 52 L4 56 2 56 2 52 4 52 M56 2 L56 4 52 4 52 2 56 2 M60 8 L62 8 62 12 60 12 60 8 M10 8 L10 6 14 6 Q14.85 6 15.4 5.4 L16.8 4 47.2 4 48.6 5.4 Q49.15 6 50 6 L54 6 54 8 10 8 M56 10 L58 10 58 14 Q58 14.85 58.6 15.4 L60 16.8 60 47.2 58.6 48.6 Q58 49.15 58 50 L58 54 56 54 56 10 M54 56 L54 58 50 58 Q49.15 58 48.6 58.6 L47.2 60 16.8 60 15.4 58.6 Q14.85 58 14 58 L10 58 10 56 54 56 M8 54 L6 54 6 50 Q6 49.15 5.4 48.6 L4 47.2 4 16.8 5.4 15.4 Q6 14.85 6 14 L6 10 8 10 8 54 M51 12 Q51.4 12 51.7 12.3 L52 13 51.7 13.7 Q51.4 14 51 14 L50.3 13.7 Q50 13.4 50 13 50 12.6 50.3 12.3 50.6 12 51 12 M62 52 L62 56 60 56 60 52 62 52 M56 62 L52 62 52 60 56 60 56 62 M51 50 Q51.4 50 51.7 50.3 L52 51 51.7 51.7 Q51.4 52 51 52 L50.3 51.7 Q50 51.4 50 51 50 50.6 50.3 50.3 50.6 50 51 50 M12 2 L12 4 8 4 8 2 12 2 M4 8 L4 12 2 12 2 8 4 8 M13 12 Q13.4 12 13.7 12.3 L14 13 13.7 13.7 Q13.4 14 13 14 L12.3 13.7 Q12 13.4 12 13 12 12.6 12.3 12.3 12.6 12 13 12 M13 50 Q13.4 50 13.7 50.3 L14 51 13.7 51.7 Q13.4 52 13 52 L12.3 51.7 Q12 51.4 12 51 12 50.6 12.3 50.3 12.6 50 13 50 M8 60 L12 60 12 62 8 62 8 60"/>
    <path stroke="none" fill="#94AFC6" d="M8 60 L8 62 4 62 2 60 2 56 4 56 6 58 6 56 8 56 8 58 6 58 8 60 M56 4 L56 2 60 2 62 4 62 8 60 8 58 6 56 4 M52 2 L52 4 50 4 48 2 52 2 M58 6 L58 8 56 8 56 6 58 6 M51 12 Q50.6 12 50.3 12.3 50 12.6 50 13 50 13.4 50.3 13.7 L51 14 Q51.4 14 51.7 13.7 L52 13 51.7 12.3 Q51.4 12 51 12 M60 12 L62 12 62 16 60 14 60 12 M10 12 L12 10 52 10 54 12 54 52 52 54 12 54 10 52 10 12 M60 52 L60 50 62 48 62 52 60 52 M62 56 L62 60 60 62 56 62 56 60 58 58 56 58 56 56 58 56 58 58 60 56 62 56 M52 62 L48 62 50 60 52 60 52 62 M51 50 Q50.6 50 50.3 50.3 50 50.6 50 51 50 51.4 50.3 51.7 L51 52 Q51.4 52 51.7 51.7 L52 51 51.7 50.3 Q51.4 50 51 50 M12 2 L16 2 14 4 12 4 12 2 M8 4 L6 6 8 6 8 8 6 8 6 6 4 8 2 8 2 4 4 2 8 2 8 4 M4 12 L4 14 2 16 2 12 4 12 M13 50 Q12.6 50 12.3 50.3 12 50.6 12 51 12 51.4 12.3 51.7 L13 52 Q13.4 52 13.7 51.7 L14 51 13.7 50.3 Q13.4 50 13 50 M13 12 Q12.6 12 12.3 12.3 12 12.6 12 13 12 13.4 12.3 13.7 L13 14 Q13.4 14 13.7 13.7 L14 13 13.7 12.3 Q13.4 12 13 12 M2 52 L2 48 4 50 4 52 2 52 M12 60 L14 60 16 62 12 62 12 60"/>
    <path stroke="none" fill="#647685" d="M54 8 Q54 8.85 54.6 9.4 55.15 10 56 10 L56 54 Q55.15 54 54.6 54.6 54 55.15 54 56 L10 56 Q10 55.15 9.4 54.6 8.85 54 8 54 L8 10 Q8.85 10 9.4 9.4 10 8.85 10 8 L54 8 M10 12 L10 52 12 54 52 54 54 52 54 12 52 10 12 10 10 12"/>
  </g>
</svg>