<svg width="64" height="64" xmlns="http://www.w3.org/2000/svg" xmlns:xlink="http://www.w3.org/1999/xlink">
  <defs/>
  <g>
    <path stroke="none" fill="#515F6B" d="M2 5 L2 59 Q2 62 5 62 L59 62 Q62 62 62 59 L62 5 Q62 2 59 2 L5 2 Q2 2 2 5 M5 0 L59 0 Q64 0 64 5 L64 59 Q64 64 59 64 L5 64 Q0 64 0 59 L0 5 Q0 0 5 0"/>
    <path stroke="none" fill="#778D9F" d="M2 5 Q2 2 5 2 L59 2 Q62 2 62 5 L62 59 Q62 62 59 62 L5 62 Q2 62 2 59 L2 5 M53 10 Q53.4 10 53.7 10.3 L54 11 53.7 11.7 53 12 Q52.6 12 52.3 11.7 52 11.4 52 11 52 10.6 52.3 10.3 52.6 10 53 10 M6 8 L6 56 8 58 56 58 58 56 58 8 56 6 8 6 6 8 M53 52 Q53.4 52 53.7 52.3 L54 53 53.7 53.7 53 54 Q52.6 54 52.3 53.7 52 53.4 52 53 52 52.6 52.3 52.3 52.6 52 53 52 M11 10 Q11.4 10 11.7 10.3 L12 11 11.7 11.7 11 12 Q10.6 12 10.3 11.7 10 11.4 10 11 10 10.6 10.3 10.3 10.6 10 11 10 M11 52 Q11.4 52 11.7 52.3 L12 53 11.7 53.7 11 54 Q10.6 54 10.3 53.7 10 53.4 10 53 10 52.6 10.3 52.3 10.6 52 11 52"/>
    <path stroke="none" fill="#94AFC6" d="M11 52 Q10.6 52 10.3 52.3 10 52.6 10 53 10 53.4 10.3 53.7 10.6 54 11 54 L11.7 53.7 12 53 11.7 52.3 Q11.4 52 11 52 M53 10 Q52.6 10 52.3 10.3 52 10.6 52 11 52 11.4 52.3 11.7 52.6 12 53 12 L53.7 11.7 54 11 53.7 10.3 Q53.4 10 53 10 M8 10 L10 8 54 8 56 10 56 54 54 56 10 56 8 54 8 10 M11 10 Q10.6 10 10.3 10.3 10 10.6 10 11 10 11.4 10.3 11.7 10.6 12 11 12 L11.7 11.7 12 11 11.7 10.3 Q11.4 10 11 10 M53 52 Q52.6 52 52.3 52.3 52 52.6 52 53 52 53.4 52.3 53.7 52.6 54 53 54 L53.7 53.7 54 53 53.7 52.3 Q53.4 52 53 52"/>
    <path stroke="none" fill="#647685" d="M8 10 L8 54 10 56 54 56 56 54 56 10 54 8 10 8 8 10 M6 8 L8 6 56 6 58 8 58 56 56 58 8 58 6 56 6 8"/>
  </g>
</svg>