<svg width="16" height="32" xmlns="http://www.w3.org/2000/svg" xmlns:xlink="http://www.w3.org/1999/xlink">
  <defs/>
  <g>
    <path stroke="none" fill="#000000" fill-opacity="0.2980392156862745" d="M0 8 Q0 4.7 2.3 2.3 4.7 0 8 0 11.3 0 13.65 2.3 16 4.7 16 8 L16 24 Q16 27.3 13.65 29.65 11.3 32 8 32 4.7 32 2.3 29.65 0 27.3 0 24 L0 8 M2 8 L2 24 Q2 26.45 3.7 28.25 L3.75 28.25 Q5.55 30 8 30 10.45 30 12.25 28.25 14 26.45 14 24 L14 8 Q14 5.55 12.25 3.7 10.45 2 8 2 5.55 2 3.75 3.7 L3.7 3.75 Q2 5.55 2 8"/>
    <path stroke="none" fill="#000000" fill-opacity="0.10196078431372549" d="M2 8 Q2 5.55 3.7 3.75 L3.75 3.7 Q5.55 2 8 2 10.45 2 12.25 3.7 14 5.55 14 8 L14 24 Q14 26.45 12.25 28.25 10.45 30 8 30 5.55 30 3.75 28.25 L3.7 28.25 Q2 26.45 2 24 L2 8"/>
  </g>
</svg>