<svg width="16" height="32" xmlns="http://www.w3.org/2000/svg" xmlns:xlink="http://www.w3.org/1999/xlink">
  <defs/>
  <g>
    <path stroke="none" fill="#8E3F38" d="M0 8 Q0 4.7 2.3 2.3 4.7 0 8 0 11.3 0 13.65 2.3 16 4.7 16 8 L16 24 Q16 27.3 13.65 29.65 11.3 32 8 32 4.7 32 2.3 29.65 0 27.3 0 24 L0 8 M2 8 L2 24 Q2 26.45 3.7 28.25 L3.75 28.25 Q5.55 30 8 30 10.45 30 12.25 28.25 14 26.45 14 24 L14 8 Q14 5.55 12.25 3.7 10.45 2 8 2 5.55 2 3.75 3.7 L3.7 3.75 Q2 5.55 2 8"/>
    <path stroke="none" fill="#FF7366" d="M2 8 Q2 5.55 3.7 3.75 L3.75 3.7 Q5.55 2 8 2 10.45 2 12.25 3.7 14 5.55 14 8 L14 24 Q14 26.45 12.25 28.25 10.45 30 8 30 5.55 30 3.75 28.25 L3.7 28.25 Q2 26.45 2 24 L2 8 M4 8 L4 24 Q4 25.65 5.15 26.85 6.35 28 8 28 9.65 28 10.8 26.85 L10.85 26.8 Q12 25.65 12 24 L12 8 Q12 6.35 10.85 5.15 9.65 4 8 4 6.4 4 5.2 5.05 L5.15 5.1 5.1 5.15 5.05 5.2 Q4 6.4 4 8"/>
    <path stroke="none" fill="#E2665B" d="M4 8 Q4 6.4 5.05 5.2 L5.1 5.15 5.15 5.1 5.2 5.05 Q6.4 4 8 4 9.65 4 10.85 5.15 12 6.35 12 8 L12 24 Q12 25.65 10.85 26.8 L10.8 26.85 Q9.65 28 8 28 6.35 28 5.15 26.85 4 25.65 4 24 L4 8"/>
  </g>
</svg>