<svg width="16" height="16" xmlns="http://www.w3.org/2000/svg" xmlns:xlink="http://www.w3.org/1999/xlink">
  <defs/>
  <g>
    <path stroke="none" fill="#68B8FF" d="M14 8 Q14 10.45 12.25 12.25 10.45 14 8 14 5.55 14 3.75 12.25 L3.7 12.25 Q2 10.45 2 8 2 5.55 3.7 3.75 L3.75 3.7 Q5.55 2 8 2 10.45 2 12.25 3.7 14 5.55 14 8 M12 8 Q12 6.35 10.85 5.15 9.65 4 8 4 6.4 4 5.2 5.05 L5.15 5.1 5.1 5.15 5.05 5.2 Q4 6.4 4 8 4 9.65 5.15 10.85 6.35 12 8 12 9.65 12 10.8 10.85 L10.85 10.8 Q12 9.65 12 8"/>
    <path stroke="none" fill="#5CA2E0" d="M12 8 Q12 9.65 10.85 10.8 L10.8 10.85 Q9.65 12 8 12 6.35 12 5.15 10.85 4 9.65 4 8 4 6.4 5.05 5.2 L5.1 5.15 5.15 5.1 5.2 5.05 Q6.4 4 8 4 9.65 4 10.85 5.15 12 6.35 12 8"/>
    <path stroke="none" fill="#3B6891" d="M16 8 Q16 11.3 13.65 13.65 11.3 16 8 16 4.7 16 2.3 13.65 0 11.3 0 8 0 4.7 2.3 2.3 4.7 0 8 0 11.3 0 13.65 2.3 16 4.7 16 8 M14 8 Q14 5.55 12.25 3.7 10.45 2 8 2 5.55 2 3.75 3.7 L3.7 3.75 Q2 5.55 2 8 2 10.45 3.7 12.25 L3.75 12.25 Q5.55 14 8 14 10.45 14 12.25 12.25 14 10.45 14 8"/>
  </g>
</svg>