<svg width="64" height="64" xmlns="http://www.w3.org/2000/svg" xmlns:xlink="http://www.w3.org/1999/xlink">
  <defs/>
  <g>
    <path stroke="none" fill="#528738" d="M10.85 53.25 Q19.6 62 32 62 44.4 62 53.2 53.25 62 44.4 62 32 62 19.6 53.2 10.85 L53.2 10.8 Q44.4 2 32 2 19.6 2 10.85 10.8 L10.8 10.85 Q2 19.6 2 32 2 44.4 10.85 53.25 M64 32 Q64 45.25 54.6 54.65 45.25 64 32 64 18.75 64 9.4 54.65 0 45.25 0 32 0 18.75 9.4 9.4 18.75 0 32 0 45.25 0 54.6 9.4 64 18.75 64 32"/>
    <path stroke="none" fill="#72B84E" d="M10.85 53.25 Q2 44.4 2 32 2 19.6 10.8 10.85 L10.85 10.8 Q19.6 2 32 2 44.4 2 53.2 10.8 L53.2 10.85 Q62 19.6 62 32 62 44.4 53.2 53.25 44.4 62 32 62 19.6 62 10.85 53.25 M13.65 13.65 Q6 21.25 6 32 6 42.75 13.65 50.4 21.25 58 32 58 42.75 58 50.35 50.4 58 42.75 58 32 58 21.25 50.4 13.65 L50.35 13.65 Q42.75 6 32 6 21.25 6 13.65 13.65"/>
    <path stroke="none" fill="#A2C0D9" d="M13.65 13.65 Q21.25 6 32 6 42.75 6 50.35 13.65 L50.4 13.65 Q58 21.25 58 32 58 42.75 50.35 50.4 42.75 58 32 58 21.25 58 13.65 50.4 6 42.75 6 32 6 21.25 13.65 13.65 M15.05 15.1 Q8 22.1 8 32 8 41.95 15.1 49 22.1 56 32 56 41.9 56 48.95 49 56 41.95 56 32 56 22.1 49 15.1 L48.95 15.1 48.95 15.05 Q41.9 8 32 8 22.1 8 15.1 15.05 L15.05 15.1"/>
    <path stroke="none" fill="#94AFC6" d="M15.05 15.1 L15.1 15.05 Q22.1 8 32 8 41.9 8 48.95 15.05 L48.95 15.1 49 15.1 Q56 22.1 56 32 56 41.95 48.95 49 41.9 56 32 56 22.1 56 15.1 49 8 41.95 8 32 8 22.1 15.05 15.1 M47 46 Q46.6 46 46.3 46.3 46 46.6 46 47 46 47.4 46.3 47.7 46.6 48 47 48 L47.05 48 47.7 47.7 48 47.05 48 47 47.7 46.3 Q47.4 46 47 46 M47.05 16 L47 16 Q46.6 16 46.3 16.3 46 16.6 46 17 46 17.4 46.3 17.7 46.6 18 47 18 L47.7 17.7 48 17.05 48 17 47.7 16.3 Q47.4 16 47.05 16 M17 46 Q16.6 46 16.3 46.3 16 46.6 16 47 16 47.4 16.3 47.7 16.6 48 17 48 L17.7 47.7 18 47 17.7 46.3 17 46 M17.05 16 L17 16 Q16.6 16 16.3 16.3 16 16.6 16 17 L16 17.05 16.3 17.7 Q16.6 18 17 18 L17.7 17.7 18 17 17.7 16.3 Q17.4 16 17.05 16"/>
    <path stroke="none" fill="#778D9F" d="M17.05 16 Q17.4 16 17.7 16.3 L18 17 17.7 17.7 17 18 Q16.6 18 16.3 17.7 L16 17.05 16 17 Q16 16.6 16.3 16.3 16.6 16 17 16 L17.05 16 M47.05 16 Q47.4 16 47.7 16.3 L48 17 48 17.05 47.7 17.7 47 18 Q46.6 18 46.3 17.7 46 17.4 46 17 46 16.6 46.3 16.3 46.6 16 47 16 L47.05 16 M47 46 Q47.4 46 47.7 46.3 L48 47 48 47.05 47.7 47.7 47.05 48 47 48 Q46.6 48 46.3 47.7 46 47.4 46 47 46 46.6 46.3 46.3 46.6 46 47 46 M17 46 L17.7 46.3 18 47 17.7 47.7 17 48 Q16.6 48 16.3 47.7 16 47.4 16 47 16 46.6 16.3 46.3 16.6 46 17 46"/>
    <path stroke="none" fill="#647685" d="M5 15 L5 10 Q5 5 10 5 L15 5 Q15.85 5 16.45 5.6 17 6.15 17 7 L17 11 Q17 11.85 16.45 12.45 L12.45 16.45 Q11.85 17 11 17 L7 17 Q6.15 17 5.6 16.45 5 15.85 5 15 M7 15 L11 15 15 11 15 7 10 7 Q7 7 7 10 L7 15"/>
    <path stroke="none" fill="#94AFC6" d="M7 15 L7 10 Q7 7 10 7 L15 7 15 11 11 15 7 15"/>
    <path stroke="none" fill="#647685" d="M59 15 Q59 15.85 58.4 16.45 57.85 17 57 17 L53 17 Q52.15 17 51.55 16.45 L47.55 12.45 Q47 11.85 47 11 L47 7 Q47 6.15 47.55 5.6 48.15 5 49 5 L54 5 Q59 5 59 10 L59 15 M57 15 L57 10 Q57 7 54 7 L49 7 49 11 53 15 57 15"/>
    <path stroke="none" fill="#94AFC6" d="M57 15 L53 15 49 11 49 7 54 7 Q57 7 57 10 L57 15"/>
    <path stroke="none" fill="#647685" d="M5 49 Q5 48.15 5.6 47.55 6.15 47 7 47 L11 47 Q11.85 47 12.45 47.55 L16.45 51.55 Q17 52.15 17 53 L17 57 Q17 57.85 16.45 58.4 15.85 59 15 59 L10 59 Q5 59 5 54 L5 49 M7 49 L7 54 Q7 57 10 57 L15 57 15 53 11 49 7 49"/>
    <path stroke="none" fill="#94AFC6" d="M7 49 L11 49 15 53 15 57 10 57 Q7 57 7 54 L7 49"/>
    <path stroke="none" fill="#647685" d="M57 49 L53 49 49 53 49 57 54 57 Q57 57 57 54 L57 49 M59 49 L59 54 Q59 59 54 59 L49 59 Q48.15 59 47.55 58.4 47 57.85 47 57 L47 53 Q47 52.15 47.55 51.55 L51.55 47.55 Q52.15 47 53 47 L57 47 Q57.85 47 58.4 47.55 59 48.15 59 49"/>
    <path stroke="none" fill="#94AFC6" d="M57 49 L57 54 Q57 57 54 57 L49 57 49 53 53 49 57 49"/>
  </g>
</svg>