<svg width="64" height="64" xmlns="http://www.w3.org/2000/svg" xmlns:xlink="http://www.w3.org/1999/xlink">
  <defs/>
  <g>
    <path stroke="none" fill="#778D9F" d="M10.85 53.25 Q2 44.4 2 32 2 19.6 10.8 10.85 L10.85 10.8 Q19.6 2 32 2 44.4 2 53.2 10.8 L53.2 10.85 Q62 19.6 62 32 62 44.4 53.2 53.25 44.4 62 32 62 19.6 62 10.85 53.25 M13.65 13.65 Q6 21.25 6 32 6 42.75 13.65 50.4 21.25 58 32 58 42.75 58 50.35 50.4 58 42.75 58 32 58 21.25 50.4 13.65 L50.35 13.65 Q42.75 6 32 6 21.25 6 13.65 13.65"/>
    <path stroke="none" fill="#647685" d="M13.65 13.65 Q21.25 6 32 6 42.75 6 50.35 13.65 L50.4 13.65 Q58 21.25 58 32 58 42.75 50.35 50.4 42.75 58 32 58 21.25 58 13.65 50.4 6 42.75 6 32 6 21.25 13.65 13.65"/>
    <path stroke="none" fill="#515F6B" d="M64 32 Q64 45.25 54.6 54.65 45.25 64 32 64 18.75 64 9.4 54.65 0 45.25 0 32 0 18.75 9.4 9.4 18.75 0 32 0 45.25 0 54.6 9.4 64 18.75 64 32 M10.85 53.25 Q19.6 62 32 62 44.4 62 53.2 53.25 62 44.4 62 32 62 19.6 53.2 10.85 L53.2 10.8 Q44.4 2 32 2 19.6 2 10.85 10.8 L10.8 10.85 Q2 19.6 2 32 2 44.4 10.85 53.25"/>
  </g>
</svg>