<svg width="64" height="64" xmlns="http://www.w3.org/2000/svg" xmlns:xlink="http://www.w3.org/1999/xlink">
  <defs/>
  <g>
    <path stroke="none" fill="#A3703A" d="M15.05 15.1 Q8 22.1 8 32 8 36.1 9.2 39.7 L11.75 40.9 11.15 43.95 Q12.7 46.65 15.1 49 22.1 56 32 56 41.95 56 49 49 51.4 46.6 53 43.85 L52.1 40.45 55 39.35 Q56.05 35.9 56.05 32 56.05 24.4 51.95 18.5 L49.85 18.2 49.85 15.95 49.05 15.1 49 15.1 49 15.05 Q41.95 8 32 8 22.1 8 15.1 15.05 L15.05 15.1 M13.65 13.65 L14.15 13.15 Q21.6 6 32 6 42.8 6 50.4 13.65 L50.45 13.65 Q52.9 16.1 54.6 18.9 58 24.7 58.05 31.9 L58.05 32 58.05 32.15 Q58 42.8 50.4 50.4 42.8 58 32 58 21.25 58 13.65 50.4 6 42.75 6 32 6 21.45 13.35 13.95 L13.65 13.65"/>
    <path stroke="none" fill="#FFF1D2" d="M15.05 15.1 L15.1 15.05 Q22.1 8 32 8 41.95 8 49 15.05 L49 15.1 49.05 15.1 49.85 15.95 49.85 18.2 51.95 18.5 Q56.05 24.4 56.05 32 56.05 35.9 55 39.35 L52.1 40.45 53 43.85 Q51.4 46.6 49 49 41.95 56 32 56 22.1 56 15.1 49 12.7 46.65 11.15 43.95 L11.75 40.9 9.2 39.7 Q8 36.1 8 32 8 22.1 15.05 15.1"/>
    <path stroke="none" fill="#B47B41" d="M13.65 13.65 L13.35 13.95 Q6 21.45 6 32 6 42.75 13.65 50.4 21.25 58 32 58 42.8 58 50.4 50.4 58 42.8 58.05 32.15 L58.05 32 58.05 31.9 Q58 24.7 54.6 18.9 52.9 16.1 50.45 13.65 L50.4 13.65 Q42.8 6 32 6 21.6 6 14.15 13.15 L13.65 13.65 M10.85 53.25 Q2 44.4 2 32 2 25.5 4.45 20 L6.65 19.2 6 16.95 8.1 13.9 8.7 13.15 13.35 13.15 13.35 8.55 13.9 8.1 Q21.7 2 32 2 44.45 2 53.25 10.8 L53.25 10.85 Q60.55 18.1 61.8 27.9 L61.85 28.35 58.2 32.05 61.85 35.7 61.8 36.15 Q60.6 45.55 53.8 52.7 L53.4 53.1 48.85 53.1 48.9 56.95 44.4 59.45 41.5 58.15 40.05 61 Q36.25 62 32 62 19.6 62 10.85 53.25"/>
    <path stroke="none" fill="#6D4B27" d="M10.85 53.25 Q19.6 62 32 62 36.25 62 40.05 61 L41.5 58.15 44.4 59.45 48.9 56.95 48.85 53.1 53.4 53.1 53.8 52.7 Q60.6 45.55 61.8 36.15 L61.85 35.7 58.2 32.05 61.85 28.35 61.8 27.9 Q60.55 18.1 53.25 10.85 L53.25 10.8 Q44.45 2 32 2 21.7 2 13.9 8.1 L13.35 8.55 13.35 13.15 8.7 13.15 8.1 13.9 6 16.95 6.65 19.2 4.45 20 Q2 25.5 2 32 2 44.4 10.85 53.25 M54.65 54.65 L54 55.3 51 55.3 51 57.85 Q48.8 59.5 46.4 60.7 39.9 64 32 64 18.75 64 9.4 54.65 0 45.25 0 32 0 25.55 2.25 20 4.25 15.05 8.1 10.8 L10.8 10.8 10.8 8.1 Q19.75 0 32 0 45.3 0 54.65 9.4 63.35 18.05 64 30.05 L62.05 32 64 33.95 Q63.4 44.65 56.5 52.7 L56.15 53.1 54.65 54.65"/>
  </g>
</svg>