<svg width="16" height="24" xmlns="http://www.w3.org/2000/svg" xmlns:xlink="http://www.w3.org/1999/xlink">
  <defs/>
  <g>
    <path stroke="none" fill="#6D4B27" d="M2 2 L5.15 2 6.6 0.6 Q7.15 0 8 0 8.85 0 9.45 0.6 L10.85 2 14 2 Q14.85 2 15.45 2.6 16 3.15 16 4 L16 20 Q16 20.85 15.45 21.45 14.85 22 14 22 L10.85 22 9.45 23.45 Q8.85 24 8 24 7.15 24 6.6 23.45 L5.15 22 2 22 Q1.15 22 0.6 21.45 0 20.85 0 20 L0 4 Q0 3.15 0.6 2.6 1.15 2 2 2 M2 20 L6 20 8 22 10 20 14 20 14 4 10 4 8 2 6 4 2 4 2 20"/>
    <path stroke="none" fill="#B47B41" d="M2 20 L2 4 6 4 8 2 10 4 14 4 14 20 10 20 8 22 6 20 2 20 M12 18 L12 6 4 6 4 18 12 18"/>
    <path stroke="none" fill="#A3703A" d="M12 18 L4 18 4 6 12 6 12 18"/>
  </g>
</svg>