<svg width="16" height="24" xmlns="http://www.w3.org/2000/svg" xmlns:xlink="http://www.w3.org/1999/xlink">
  <defs/>
  <g>
    <path stroke="none" fill="#000000" fill-opacity="0.2" d="M0 7.85 L0 6 Q0 5.15 0.6 4.6 L2.6 2.6 Q3.15 2 4 2 4 1.15 4.6 0.6 5.15 0 6 0 L10 0 Q10.85 0 11.45 0.6 12 1.15 12 2 12.85 2 13.45 2.6 L15.45 4.6 Q16 5.15 16 6 L16 7.85 Q16 7.15 15.45 6.6 L13.45 4.6 Q12.85 4 12 4 12 3.15 11.45 2.6 10.85 2 10 2 L6 2 Q5.15 2 4.6 2.6 4 3.15 4 4 3.15 4 2.6 4.6 L0.6 6.6 Q0 7.15 0 7.85"/>
    <path stroke="none" fill="#000000" fill-opacity="0.10196078431372549" d="M0 7.85 Q0 7.15 0.6 6.6 L2.6 4.6 Q3.15 4 4 4 4 3.15 4.6 2.6 5.15 2 6 2 L10 2 Q10.85 2 11.45 2.6 12 3.15 12 4 12.85 4 13.45 4.6 L15.45 6.6 Q16 7.15 16 7.85 L16 18.05 Q16 18.85 15.45 19.45 L13.45 21.45 Q12.85 22 12 22 12 22.85 11.45 23.45 10.85 24 10 24 L6 24 Q5.15 24 4.6 23.45 4 22.85 4 22 3.15 22 2.6 21.45 L0.6 19.45 Q0 18.85 0 18.05 L0 7.85"/>
  </g>
</svg>