<svg width="16" height="64" xmlns="http://www.w3.org/2000/svg" xmlns:xlink="http://www.w3.org/1999/xlink">
  <defs/>
  <g>
    <path stroke="none" fill="#6D4B27" d="M2 2 L5.15 2 6.6 0.6 Q7.15 0 8 0 8.85 0 9.45 0.6 L10.85 2 14 2 Q14.85 2 15.45 2.6 16 3.15 16 4 L16 60 Q16 60.85 15.45 61.45 14.85 62 14 62 L10.85 62 9.45 63.45 Q8.85 64 8 64 7.15 64 6.6 63.45 L5.15 62 2 62 Q1.15 62 0.6 61.45 0 60.85 0 60 L0 4 Q0 3.15 0.6 2.6 1.15 2 2 2 M2 60 L6 60 8 62 10 60 14 60 14 4 10 4 8 2 6 4 2 4 2 60"/>
    <path stroke="none" fill="#B47B41" d="M2 60 L2 4 6 4 8 2 10 4 14 4 14 60 10 60 8 62 6 60 2 60 M12 6 L4 6 4 58 12 58 12 6"/>
    <path stroke="none" fill="#A3703A" d="M12 6 L12 58 4 58 4 6 12 6"/>
  </g>
</svg>