<svg width="16" height="24" xmlns="http://www.w3.org/2000/svg" xmlns:xlink="http://www.w3.org/1999/xlink">
  <defs/>
  <g>
    <path stroke="none" fill="#000000" fill-opacity="0.2" d="M0 5.8 L0 4 Q0 3.15 0.6 2.6 1.15 2 2 2 L5.15 2 6.6 0.6 Q7.15 0 8 0 8.85 0 9.45 0.6 L10.85 2 14 2 Q14.85 2 15.45 2.6 16 3.15 16 4 L16 5.8 Q16 5.15 15.45 4.6 14.85 4 14 4 L10.85 4 9.45 2.6 Q8.85 2 8 2 7.15 2 6.6 2.6 L5.15 4 2 4 Q1.15 4 0.6 4.6 0 5.15 0 5.8"/>
    <path stroke="none" fill="#000000" fill-opacity="0.10196078431372549" d="M0 5.8 Q0 5.15 0.6 4.6 1.15 4 2 4 L5.15 4 6.6 2.6 Q7.15 2 8 2 8.85 2 9.45 2.6 L10.85 4 14 4 Q14.85 4 15.45 4.6 16 5.15 16 5.8 L16 20.05 Q16 20.85 15.45 21.45 14.85 22 14 22 L10.85 22 9.45 23.45 Q8.85 24 8 24 7.15 24 6.6 23.45 L5.15 22 2 22 Q1.15 22 0.6 21.45 0 20.85 0 20.05 L0 5.8"/>
  </g>
</svg>