<svg width="16" height="24" xmlns="http://www.w3.org/2000/svg" xmlns:xlink="http://www.w3.org/1999/xlink">
  <defs/>
  <g>
    <path stroke="none" fill="#515F6B" d="M2 18 L4 20 6 20 6 22 10 22 10 20 12 20 14 18 14 6 12 4 10 4 10 2 6 2 6 4 4 4 2 6 2 18 M0.6 4.6 L2.6 2.6 Q3.15 2 4 2 4 1.15 4.6 0.6 5.15 0 6 0 L10 0 Q10.85 0 11.45 0.6 12 1.15 12 2 12.85 2 13.45 2.6 L15.45 4.6 Q16 5.15 16 6 L16 18 Q16 18.85 15.45 19.45 L13.45 21.45 Q12.85 22 12 22 12 22.85 11.45 23.45 10.85 24 10 24 L6 24 Q5.15 24 4.6 23.45 4 22.85 4 22 3.15 22 2.6 21.45 L0.6 19.45 Q0 18.85 0 18 L0 6 Q0 5.15 0.6 4.6"/>
    <path stroke="none" fill="#94AFC6" d="M2 18 L2 6 4 4 6 4 6 2 10 2 10 4 12 4 14 6 14 18 12 20 10 20 10 22 6 22 6 20 4 20 2 18 M12 18 L12 6 4 6 4 18 12 18"/>
    <path stroke="none" fill="#778D9F" d="M12 18 L4 18 4 6 12 6 12 18"/>
  </g>
</svg>