<svg width="16" height="64" xmlns="http://www.w3.org/2000/svg" xmlns:xlink="http://www.w3.org/1999/xlink">
  <defs/>
  <g>
    <path stroke="none" fill="#000000" fill-opacity="0.2" d="M0 7.75 L0 5.95 Q0 5.15 0.6 4.6 L2.6 2.6 Q3.15 2 4 2 4 1.15 4.6 0.6 5.15 0 6 0 L10 0 Q10.85 0 11.45 0.6 12 1.15 12 2 12.85 2 13.45 2.6 L15.45 4.6 Q16 5.15 16 5.95 L16 7.75 Q16 7.15 15.45 6.6 L13.45 4.6 Q12.85 4 12 4 12 3.15 11.45 2.6 10.85 2 10 2 L6 2 Q5.15 2 4.6 2.6 4 3.15 4 4 3.15 4 2.6 4.6 L0.6 6.6 Q0 7.15 0 7.75"/>
    <path stroke="none" fill="#000000" fill-opacity="0.10196078431372549" d="M0 7.75 Q0 7.15 0.6 6.6 L2.6 4.6 Q3.15 4 4 4 4 3.15 4.6 2.6 5.15 2 6 2 L10 2 Q10.85 2 11.45 2.6 12 3.15 12 4 12.85 4 13.45 4.6 L15.45 6.6 Q16 7.15 16 7.75 L16 58.05 Q16 58.85 15.45 59.45 L13.45 61.45 Q12.85 62 12 62 12 62.85 11.45 63.45 10.85 64 10 64 L6 64 Q5.15 64 4.6 63.45 4 62.85 4 62 3.15 62 2.6 61.45 L0.6 59.45 Q0 58.85 0 58.05 L0 7.75"/>
  </g>
</svg>