<svg width="16" height="64" xmlns="http://www.w3.org/2000/svg" xmlns:xlink="http://www.w3.org/1999/xlink">
  <defs/>
  <g>
    <path stroke="none" fill="#8A3D36" d="M0.6 4.6 L2.6 2.6 Q3.15 2 4 2 4 1.15 4.6 0.6 5.15 0 6 0 L10 0 Q10.85 0 11.45 0.6 12 1.15 12 2 12.85 2 13.45 2.6 L15.45 4.6 Q16 5.15 16 6 L16 58 Q16 58.85 15.45 59.45 L13.45 61.45 Q12.85 62 12 62 12 62.85 11.45 63.45 10.85 64 10 64 L6 64 Q5.15 64 4.6 63.45 4 62.85 4 62 3.15 62 2.6 61.45 L0.6 59.45 Q0 58.85 0 58 L0 6 Q0 5.15 0.6 4.6 M2 58 L4 60 6 60 6 62 10 62 10 60 12 60 14 58 14 6 12 4 10 4 10 2 6 2 6 4 4 4 2 6 2 58"/>
    <path stroke="none" fill="#EC6A5E" d="M2 58 L2 6 4 4 6 4 6 2 10 2 10 4 12 4 14 6 14 58 12 60 10 60 10 62 6 62 6 60 4 60 2 58 M12 6 L4 6 4 58 12 58 12 6"/>
    <path stroke="none" fill="#94AFC6" d="M12 6 L12 58 4 58 4 6 12 6"/>
  </g>
</svg>